{"glyphs":{"0":{"ha":714,"x_min":69,"x_max":681,"o":"m 69 439 q 141 755 69 618 q 370 892 212 892 q 392 890 376 892 q 414 889 408 889 q 573 807 514 878 q 657 639 633 737 q 681 439 681 541 q 668 289 681 365 q 626 150 656 214 q 543 41 597 85 q 414 -11 490 -3 q 370 -14 400 -14 q 141 123 212 -14 q 69 439 69 260 m 403 811 q 372 814 392 814 q 186 439 186 814 q 192 315 186 374 q 217 196 197 256 q 274 99 236 136 q 372 61 312 61 q 403 64 392 61 q 533 189 503 79 q 564 439 564 298 q 554 600 564 524 q 508 739 544 676 q 403 811 473 802 z "},"1":{"ha":481,"x_min":78,"x_max":450,"o":"m 142 0 l 142 39 q 181 43 165 41 q 213 51 197 45 q 238 68 229 56 q 248 100 248 80 l 248 770 q 78 730 159 743 l 78 775 q 204 817 155 796 q 294 875 252 838 l 353 875 l 353 100 q 361 70 353 81 q 385 52 370 58 q 417 43 400 45 q 450 39 433 41 l 450 0 l 142 0 z "},"2":{"ha":686,"x_min":56,"x_max":656,"o":"m 656 0 l 56 0 q 125 204 63 126 q 306 362 188 282 q 474 491 423 442 q 525 623 525 541 q 509 699 525 665 q 466 758 494 733 q 400 795 439 782 q 322 808 362 808 q 197 773 248 808 q 127 669 146 737 l 78 669 l 78 811 q 204 872 144 852 q 334 892 264 892 q 397 886 353 892 q 484 863 441 882 q 560 814 527 844 q 614 746 593 785 q 639 661 635 707 q 642 628 642 650 q 592 473 642 545 q 464 350 542 401 q 383 301 436 333 q 292 242 330 270 q 220 179 254 214 q 164 100 187 143 l 164 89 l 536 89 q 597 103 577 89 q 619 155 617 117 l 656 155 l 656 0 z "},"3":{"ha":686,"x_min":56,"x_max":650,"o":"m 464 525 l 464 522 q 568 469 528 503 q 629 391 609 435 q 650 297 650 347 q 600 149 650 220 q 453 32 549 77 q 228 -14 357 -14 q 56 5 141 -14 l 56 150 l 103 150 q 225 69 117 69 q 359 94 286 69 q 481 171 431 119 q 530 294 530 222 q 505 389 530 343 q 431 456 479 434 q 309 472 385 472 l 269 472 l 269 555 q 348 558 315 555 q 412 573 380 561 q 469 614 445 586 q 497 689 497 646 q 467 770 497 739 q 334 814 422 814 q 216 787 269 814 q 153 711 163 760 l 111 711 l 111 836 q 189 863 144 849 q 278 884 233 876 q 361 892 323 892 q 575 800 506 892 q 608 697 608 759 q 589 616 608 651 q 544 569 570 586 q 464 525 518 551 z "},"4":{"ha":714,"x_min":50,"x_max":681,"o":"m 614 0 l 414 0 l 414 39 q 443 44 434 42 q 458 58 451 47 q 464 127 464 75 q 463 169 464 143 q 461 200 461 195 l 50 200 l 50 292 l 481 875 l 567 875 l 567 292 l 681 292 l 681 200 l 567 200 q 565 160 567 186 q 564 117 564 134 q 572 58 564 72 q 583 47 576 50 q 597 42 589 43 q 614 39 604 40 l 614 0 m 464 289 l 469 728 l 147 292 l 147 289 l 464 289 z "},"5":{"ha":700,"x_min":69,"x_max":661,"o":"m 69 -5 l 69 153 l 109 153 q 140 94 114 111 q 211 78 166 78 q 366 114 287 78 q 496 212 444 151 q 547 347 547 274 q 493 488 547 434 q 364 542 438 542 q 256 512 308 542 q 172 428 204 483 l 103 450 l 122 875 l 603 875 l 558 783 l 205 783 l 195 567 q 378 628 273 628 q 512 590 446 628 q 620 489 578 553 q 661 353 661 426 q 627 212 661 278 q 534 97 593 146 q 403 22 474 47 q 197 -11 320 -11 q 69 -5 159 -11 z "},"6":{"ha":714,"x_min":78,"x_max":681,"o":"m 189 472 q 286 556 233 527 q 403 586 338 586 q 517 562 463 586 q 611 494 571 538 q 681 297 681 425 q 655 164 681 230 q 579 53 629 99 q 464 -8 530 6 q 380 -14 408 -14 q 209 44 277 -14 q 109 196 140 102 q 78 397 78 290 q 97 570 78 477 q 169 724 115 650 q 299 843 222 798 q 456 889 375 889 q 628 856 530 889 l 628 730 l 595 730 q 544 791 583 771 q 458 811 505 811 q 321 760 381 811 q 228 631 262 709 q 189 472 193 552 m 575 289 q 550 386 575 338 q 483 463 526 433 q 389 492 440 492 q 293 463 338 492 q 223 387 249 434 q 197 289 197 339 q 222 191 197 239 q 290 112 247 142 q 383 81 333 81 q 479 111 435 81 q 549 190 524 141 q 575 289 575 239 z "},"7":{"ha":672,"x_min":83,"x_max":644,"o":"m 383 0 l 264 0 q 280 171 265 91 q 324 324 296 250 q 400 484 353 397 q 440 552 406 495 q 494 647 473 609 q 534 725 515 684 q 553 789 553 766 l 203 789 q 141 775 161 789 q 119 722 121 762 l 83 722 l 83 875 l 644 875 q 643 817 644 840 q 633 770 641 794 q 606 684 624 726 q 567 602 587 641 q 519 505 547 562 q 441 331 470 404 q 397 180 412 257 q 383 0 383 102 z "},"8":{"ha":714,"x_min":72,"x_max":677,"o":"m 228 484 l 228 492 q 140 563 169 523 q 111 667 111 604 q 154 771 111 720 q 260 856 197 823 q 375 889 323 889 q 472 874 425 889 q 556 831 518 859 q 616 763 594 802 q 639 672 639 723 q 525 492 639 555 l 525 484 q 598 439 568 464 q 650 375 629 414 q 677 250 677 320 q 634 111 677 171 q 520 18 590 50 q 375 -14 450 -14 q 230 16 300 -14 q 116 106 161 45 q 72 256 72 167 q 111 387 72 332 q 228 484 151 443 m 372 444 q 277 423 318 444 q 213 360 236 402 q 189 261 189 318 q 239 120 189 174 q 375 66 288 66 q 466 91 423 66 q 535 156 509 115 q 561 244 561 197 q 539 340 561 294 q 475 415 518 387 q 372 444 433 444 m 220 681 q 267 569 220 614 q 375 525 314 525 q 452 542 416 525 q 510 592 488 559 q 533 669 533 625 q 489 773 533 735 q 375 811 444 811 q 296 797 331 811 q 240 754 261 783 q 220 681 220 724 z "},"9":{"ha":700,"x_min":64,"x_max":669,"o":"m 175 597 q 223 452 175 518 q 347 386 271 386 q 424 401 387 386 q 489 445 460 417 q 533 510 517 473 q 550 586 550 547 q 523 685 550 637 q 451 760 496 732 q 353 789 406 789 q 263 762 304 789 q 199 690 222 734 q 175 597 175 646 m 505 197 q 545 292 534 243 q 558 403 556 341 q 353 292 473 296 l 345 292 q 217 322 279 292 q 117 406 156 352 q 64 581 64 486 q 109 747 64 671 q 210 853 145 817 q 355 892 274 890 l 358 892 q 503 856 442 892 q 600 761 564 821 q 653 628 636 701 q 669 472 669 554 q 653 306 669 410 q 539 92 626 182 q 334 -11 452 1 l 289 -11 q 119 20 205 -11 l 119 144 l 153 144 q 203 85 165 104 q 289 66 240 66 q 322 69 311 66 q 428 111 380 76 q 505 197 475 146 z "},"·":{"ha":1042,"x_min":174,"x_max":868,"o":"m 174 0 l 174 868 l 868 868 l 868 0 l 174 0 m 846 22 l 846 846 l 196 846 l 196 22 l 846 22 z "}," ":{"ha":581,"x_min":0,"x_max":0,"o":""},"!":{"ha":302,"x_min":125,"x_max":275,"o":"m 183 216 l 136 725 q 131 789 131 759 q 200 897 131 897 l 216 897 q 272 798 272 887 q 269 757 272 782 q 267 725 267 732 l 222 216 l 183 216 m 269 31 q 200 -17 250 -17 q 148 4 171 -17 q 125 58 125 25 q 148 111 125 88 q 200 134 170 134 q 253 109 230 134 q 275 58 275 83 q 269 31 275 49 z "},"\"":{"ha":425,"x_min":83,"x_max":389,"o":"m 144 533 l 125 533 l 86 814 q 85 824 86 816 q 83 836 83 832 q 97 881 83 862 q 136 900 110 900 q 175 881 163 900 q 186 833 186 862 l 186 814 l 144 533 m 389 814 l 347 533 l 328 533 l 289 814 q 288 824 289 817 q 286 833 286 831 q 301 884 286 865 q 336 903 316 903 q 372 884 356 903 q 389 833 389 865 l 389 814 z "},"#":{"ha":961,"x_min":92,"x_max":933,"o":"m 509 897 l 589 897 l 486 606 l 661 606 l 766 897 l 847 897 l 745 606 l 933 606 l 908 536 l 717 536 l 656 361 l 861 361 l 833 289 l 631 289 l 528 0 l 447 0 l 550 289 l 372 289 l 269 0 l 189 0 l 292 289 l 92 289 l 119 361 l 317 361 l 378 536 l 164 536 l 192 606 l 406 606 l 509 897 m 639 536 l 458 536 l 397 358 l 575 358 l 639 536 z "},"$":{"ha":686,"x_min":92,"x_max":659,"o":"m 103 144 l 103 286 l 142 286 q 173 226 156 249 q 220 189 190 203 q 370 158 281 158 q 453 172 414 158 q 514 216 493 186 q 530 275 530 241 q 520 321 530 299 q 492 355 511 344 q 395 394 457 377 q 261 432 333 410 q 146 487 189 453 q 94 581 104 521 q 93 595 94 584 q 92 611 92 606 q 336 808 92 780 l 336 964 l 414 964 l 414 811 q 505 802 458 809 q 597 783 551 795 l 597 642 l 555 642 q 524 700 545 679 q 467 730 504 720 q 386 742 434 742 q 322 736 342 742 q 243 694 276 728 q 211 625 211 660 q 267 558 211 583 q 378 525 300 545 q 502 490 456 505 q 590 445 547 475 q 650 367 633 415 q 659 311 659 342 q 646 238 659 273 q 611 175 633 203 q 558 132 590 149 q 496 109 526 116 q 414 92 466 101 l 414 -89 l 336 -89 l 336 89 q 217 105 270 93 q 103 144 163 118 z "},"%":{"ha":933,"x_min":89,"x_max":900,"o":"m 244 -14 l 167 -14 l 661 739 q 550 705 600 705 q 467 728 513 705 q 468 711 467 723 q 469 694 469 700 q 450 588 469 637 q 388 510 431 538 q 281 481 346 481 q 141 541 193 481 q 89 686 89 601 q 103 770 89 725 q 171 860 125 828 q 281 892 217 892 q 367 873 332 892 q 441 814 401 855 q 553 764 492 764 q 628 781 590 764 q 700 828 665 798 q 758 892 734 858 l 833 892 l 244 -14 m 711 325 q 633 288 657 325 q 608 192 608 251 q 633 94 608 132 q 711 56 658 56 q 789 94 765 56 q 814 189 814 132 q 803 253 814 221 q 769 304 791 284 q 711 325 746 325 m 178 684 q 281 553 178 553 q 359 591 334 553 q 383 689 383 629 q 360 785 383 745 q 278 825 337 825 q 202 784 227 825 q 178 684 178 743 m 533 272 q 604 364 553 330 q 714 397 654 397 q 770 389 741 397 q 819 367 798 380 q 880 291 859 338 q 900 189 900 243 q 889 109 900 159 q 820 18 869 49 q 708 -14 770 -14 q 688 -12 701 -14 q 667 -11 674 -11 q 588 27 621 -3 q 538 101 555 57 q 522 192 522 145 q 533 272 522 239 z "},"&":{"ha":961,"x_min":81,"x_max":933,"o":"m 933 350 q 870 346 888 350 q 843 322 852 341 q 828 261 833 303 q 787 138 821 191 q 699 49 753 85 q 579 -5 644 13 q 447 -22 514 -22 q 303 3 389 -22 q 149 90 216 28 q 81 253 81 153 q 132 399 81 339 q 269 486 182 458 l 269 494 q 168 570 209 519 q 127 681 127 621 q 147 755 127 710 q 425 897 213 897 q 681 859 538 897 l 681 700 l 639 700 q 579 784 619 755 q 478 819 538 813 l 444 819 q 283 766 336 819 q 248 675 248 731 q 275 591 248 623 q 350 542 307 553 q 456 530 393 530 l 486 530 l 486 453 l 433 453 q 322 433 363 453 q 247 378 277 414 q 208 294 217 343 q 207 277 208 290 q 205 258 205 264 q 239 154 205 198 q 330 85 273 109 q 447 61 386 61 q 632 117 548 61 q 717 269 717 174 l 717 281 q 685 338 715 326 q 603 350 654 350 l 597 350 l 597 395 l 933 395 l 933 350 z "},"'":{"ha":220,"x_min":83,"x_max":186,"o":"m 144 533 l 125 533 l 86 814 q 85 824 86 817 q 83 833 83 831 q 98 884 83 865 q 134 903 113 903 q 170 883 153 903 q 186 831 186 864 l 186 814 l 144 533 z "},"(":{"ha":411,"x_min":89,"x_max":380,"o":"m 380 -200 l 342 -239 q 153 33 216 -101 q 89 330 89 166 q 107 490 89 412 q 159 638 125 568 q 239 771 193 709 q 342 897 284 834 l 380 861 q 281 696 319 779 q 224 522 243 612 q 205 330 205 431 q 224 139 205 231 q 282 -38 242 47 q 380 -200 321 -123 z "},")":{"ha":383,"x_min":53,"x_max":347,"o":"m 53 861 l 92 897 q 229 722 174 807 q 316 538 284 636 q 347 330 347 441 q 282 32 347 167 q 92 -239 216 -102 l 53 -200 q 188 48 144 -81 q 231 330 231 178 q 187 612 231 481 q 53 861 144 743 z "},"*":{"ha":606,"x_min":111,"x_max":575,"o":"m 353 625 q 358 564 353 583 q 375 520 363 544 q 395 467 387 496 q 397 444 397 458 q 386 403 397 420 q 353 386 374 386 l 347 386 q 302 403 319 386 q 286 444 286 420 q 294 478 286 460 q 311 516 298 490 q 328 561 324 543 q 334 608 334 599 l 334 628 q 308 610 319 617 q 288 596 297 603 q 272 581 279 590 q 249 547 268 576 q 216 509 229 519 q 164 486 190 486 q 122 509 140 486 q 111 539 111 530 q 131 580 111 562 q 175 603 151 598 q 224 609 192 606 q 278 619 256 612 q 322 644 300 626 q 275 667 295 661 q 217 677 256 673 q 172 684 178 682 q 129 704 147 688 q 111 742 111 720 q 113 750 111 744 q 117 763 115 757 q 119 772 119 768 q 164 798 134 798 q 196 789 179 798 q 222 770 213 781 q 277 701 260 719 q 334 659 294 683 q 325 726 332 702 q 297 800 318 750 q 289 842 289 821 q 303 882 289 867 q 345 897 317 897 q 384 881 370 897 q 397 839 397 864 q 395 817 397 825 q 377 770 391 802 q 358 722 362 737 q 353 659 353 683 q 414 703 395 684 q 441 739 425 714 q 469 775 457 764 q 519 798 493 798 q 570 761 553 798 q 572 742 572 755 q 555 704 572 720 q 514 684 537 688 q 464 677 498 682 q 407 665 429 672 q 364 642 385 657 q 419 616 400 621 q 466 609 439 611 q 522 600 493 608 q 560 577 545 594 q 575 539 575 560 q 572 526 575 534 q 567 511 568 517 q 519 484 544 484 q 469 509 494 484 q 435 551 453 525 q 402 591 417 576 q 353 625 387 606 z "},"+":{"ha":961,"x_min":186,"x_max":922,"o":"m 517 753 l 591 753 l 591 414 l 922 414 l 922 342 l 591 342 l 591 0 l 517 0 l 517 342 l 186 342 l 186 414 l 517 414 l 517 753 z "},",":{"ha":289,"x_min":97,"x_max":261,"o":"m 134 -189 l 97 -158 q 189 -20 169 -83 q 130 9 149 -13 q 111 58 111 31 q 131 109 111 87 q 183 131 151 131 l 211 131 q 261 36 261 113 l 261 20 q 238 -55 257 -19 q 199 -116 220 -92 q 134 -189 178 -141 z "},"-":{"ha":425,"x_min":81,"x_max":389,"o":"m 81 248 l 81 342 l 389 342 l 389 248 l 81 248 z "},".":{"ha":289,"x_min":111,"x_max":258,"o":"m 253 22 q 226 -11 245 1 q 186 -22 207 -22 q 133 -3 155 -22 q 111 50 111 17 q 133 103 111 81 q 186 125 155 125 l 200 125 q 242 97 227 119 q 258 50 258 76 q 253 22 258 31 z "},"/":{"ha":494,"x_min":22,"x_max":458,"o":"m 89 -117 l 22 -117 l 389 897 l 458 897 l 89 -117 z "},":":{"ha":302,"x_min":119,"x_max":272,"o":"m 264 444 q 237 411 256 422 q 197 400 218 400 q 142 420 165 400 q 119 472 119 439 q 142 526 119 504 q 195 547 164 547 l 211 547 q 253 519 236 541 q 269 472 269 498 q 264 444 269 462 m 211 136 q 255 110 239 132 q 272 61 272 87 q 267 36 272 54 q 237 1 256 13 q 197 -11 219 -11 q 145 10 168 -11 q 122 64 122 31 q 144 117 122 96 q 197 139 167 139 q 204 138 199 139 q 211 136 210 136 z "},";":{"ha":302,"x_min":106,"x_max":269,"o":"m 142 -189 l 106 -158 q 163 -88 140 -122 q 197 -20 186 -54 q 137 9 157 -13 q 117 58 117 31 q 138 108 117 85 q 192 131 159 131 l 216 131 q 269 36 269 113 l 269 20 q 247 -55 265 -19 q 207 -116 228 -92 q 142 -189 186 -141 m 264 441 q 237 407 256 419 q 197 395 218 395 q 142 415 165 395 q 119 469 119 435 q 142 523 119 501 q 195 545 164 545 q 201 543 195 545 q 211 542 208 542 q 253 516 236 538 q 269 469 269 494 q 264 441 269 459 z "},"<":{"ha":947,"x_min":192,"x_max":917,"o":"m 917 705 l 917 628 l 300 375 l 917 127 l 917 47 l 192 345 l 192 408 l 917 705 z "},"=":{"ha":961,"x_min":186,"x_max":922,"o":"m 186 530 l 922 530 l 922 458 l 186 458 l 186 530 m 186 294 l 922 294 l 922 222 l 186 222 l 186 294 z "},">":{"ha":947,"x_min":192,"x_max":917,"o":"m 192 705 l 917 408 l 917 345 l 192 47 l 192 127 l 806 375 l 192 628 l 192 705 z "},"?":{"ha":606,"x_min":66,"x_max":567,"o":"m 153 58 q 175 111 153 88 q 228 134 198 134 q 235 132 229 134 q 241 131 240 131 q 285 105 268 127 q 302 58 302 83 q 297 31 302 47 q 228 -17 277 -17 q 176 4 199 -17 q 153 58 153 25 m 256 311 l 256 231 l 200 231 l 200 406 q 228 404 211 406 q 253 403 245 403 q 338 414 300 403 q 404 451 375 425 q 450 525 433 478 q 461 595 461 555 q 446 679 461 637 q 403 750 431 720 q 328 801 372 783 q 239 819 284 819 q 186 814 220 819 q 130 784 149 804 q 103 728 111 764 l 66 728 l 66 867 q 236 897 153 897 q 319 889 277 897 q 465 812 401 873 q 553 669 528 751 q 567 570 567 611 q 548 466 567 515 q 492 380 529 418 q 398 325 452 340 q 281 309 345 309 q 268 310 276 309 q 256 311 260 311 z "},"@":{"ha":1211,"x_min":117,"x_max":1183,"o":"m 692 595 q 567 485 622 586 q 497 294 513 383 q 489 225 489 261 q 505 153 489 182 q 586 109 534 109 q 628 117 606 109 q 716 194 676 136 q 780 323 756 251 q 803 461 803 396 q 780 558 803 522 q 705 595 756 595 l 692 595 m 761 208 q 572 78 681 78 q 542 81 553 78 q 437 149 474 88 q 400 283 400 210 q 406 339 400 305 q 447 446 416 395 q 519 535 477 496 q 609 597 562 574 q 700 619 657 619 q 836 500 802 619 l 867 611 l 956 611 l 852 236 q 842 172 842 191 q 895 103 842 103 q 942 117 913 103 q 1042 182 1000 138 q 1111 283 1084 227 q 1147 403 1137 340 q 1153 478 1153 431 q 1123 630 1153 559 q 1037 754 1094 701 q 900 836 980 807 q 814 859 859 851 q 725 867 769 867 q 523 828 621 867 q 353 720 425 789 q 243 565 283 652 q 195 383 203 478 q 189 311 189 338 q 225 127 189 207 q 302 12 254 61 q 415 -72 349 -37 q 549 -123 480 -106 q 689 -139 618 -139 q 775 -134 747 -139 q 929 -92 863 -121 q 1069 -14 996 -64 l 1089 -36 q 937 -122 1010 -90 q 772 -167 863 -154 q 675 -172 711 -172 q 453 -136 560 -172 q 267 -25 347 -100 q 155 137 193 46 q 117 325 117 229 q 160 537 117 433 q 281 717 203 641 q 408 813 337 773 q 558 874 479 854 q 717 895 637 895 q 831 884 782 895 q 974 835 908 871 q 1086 746 1040 799 q 1158 626 1132 694 q 1183 478 1183 557 q 1142 280 1181 372 q 1028 131 1103 188 q 886 75 958 75 q 831 89 858 75 q 761 208 771 112 z "},"A":{"ha":852,"x_min":20,"x_max":822,"o":"m 286 436 l 528 436 l 403 745 l 286 436 m 180 39 l 180 0 l 20 0 l 20 39 q 61 92 46 45 l 380 880 l 461 880 l 789 78 q 797 60 793 69 q 807 45 801 51 q 822 39 812 39 l 822 0 l 642 0 l 642 39 q 675 61 675 44 q 673 68 675 64 q 672 75 672 73 l 561 355 l 253 355 l 147 83 q 146 75 147 81 q 144 69 144 70 q 180 39 144 44 z "},"B":{"ha":852,"x_min":83,"x_max":817,"o":"m 416 0 l 83 0 l 83 39 q 117 51 107 41 q 127 83 127 61 l 127 798 q 118 830 127 820 q 83 844 108 840 l 83 880 l 458 880 q 592 867 531 880 q 697 816 654 854 q 750 708 740 778 q 751 689 750 703 q 753 669 753 675 q 717 565 753 608 q 616 494 681 522 q 714 459 674 480 q 781 400 754 439 q 817 264 817 344 q 803 170 817 216 q 663 32 764 64 q 416 0 562 0 m 464 453 l 241 453 l 241 83 l 447 83 q 621 119 553 83 q 697 250 688 155 l 697 267 q 630 405 697 357 q 464 453 562 453 m 478 533 q 587 563 540 533 q 639 653 635 593 l 639 667 q 617 742 639 711 q 560 786 596 772 q 475 800 524 800 l 241 800 l 241 533 l 478 533 z "},"C":{"ha":880,"x_min":75,"x_max":844,"o":"m 800 -8 q 623 -20 682 -20 q 514 -12 564 -20 q 414 17 465 -3 q 170 201 265 72 q 75 486 75 330 q 98 624 75 559 q 162 741 121 689 q 263 830 204 793 q 392 884 322 867 q 525 897 461 897 q 692 869 617 897 q 844 770 769 836 l 730 659 l 703 686 q 714 720 714 701 q 687 767 714 745 q 615 801 660 789 q 519 814 570 814 q 369 783 441 814 q 248 681 296 751 q 200 500 201 610 q 199 497 200 498 q 197 494 197 496 q 238 313 197 395 q 345 175 279 231 q 485 92 410 120 q 623 64 559 64 q 719 87 680 64 q 764 153 758 110 l 800 153 l 800 -8 z "},"D":{"ha":920,"x_min":86,"x_max":886,"o":"m 248 86 l 397 86 q 564 101 497 86 q 681 167 631 115 q 761 383 761 247 q 736 536 761 453 q 660 679 708 625 q 548 760 611 734 q 418 793 486 785 q 248 800 351 800 l 248 86 m 367 0 l 86 0 l 86 39 q 112 47 102 41 q 126 62 122 52 q 131 89 131 73 l 131 794 q 120 830 131 819 q 86 844 110 840 l 86 880 l 253 880 q 467 871 380 880 q 631 825 554 862 q 723 764 680 802 q 797 679 766 725 q 849 581 828 633 q 880 469 869 528 q 886 389 886 424 q 870 267 886 327 q 820 158 853 207 q 736 72 787 109 q 629 24 689 40 q 514 4 570 8 q 378 0 459 0 l 367 0 z "},"E":{"ha":798,"x_min":0,"x_max":766,"o":"m 0 0 l 81 0 l 81 39 q 117 54 107 44 q 127 89 127 64 l 127 794 q 117 830 127 819 q 81 844 106 840 l 81 880 l 733 880 l 733 733 l 700 733 q 672 788 696 775 q 606 800 649 800 l 241 800 l 241 539 l 555 539 q 619 583 612 539 l 653 583 l 653 414 l 619 414 q 555 458 612 458 l 241 458 l 241 86 l 642 86 q 707 104 685 86 q 730 164 728 121 l 766 164 l 766 0 l 0 0 z "},"F":{"ha":811,"x_min":0,"x_max":783,"o":"m 0 0 l 92 0 l 92 39 q 127 53 118 44 q 136 89 136 62 l 136 794 q 127 831 136 821 q 92 844 117 840 l 92 880 l 783 880 l 783 722 l 750 722 q 725 783 746 766 q 659 800 703 800 l 250 800 l 250 539 l 545 539 q 608 583 602 539 l 647 583 l 647 414 l 608 414 q 545 458 602 458 l 250 458 l 250 89 q 260 54 250 64 q 294 39 269 44 l 294 0 l 0 0 z "},"G":{"ha":895,"x_min":75,"x_max":867,"o":"m 867 509 l 867 469 q 831 455 842 465 q 819 419 821 445 l 819 86 q 828 50 822 62 q 852 36 835 38 l 852 0 q 642 -17 708 -17 q 492 -3 575 -17 q 287 84 380 20 q 138 242 195 148 q 75 453 82 337 l 75 481 q 114 661 75 577 q 224 802 153 744 q 392 884 296 861 q 522 897 461 897 q 692 869 617 897 q 861 753 774 835 l 747 642 l 717 669 q 730 703 730 688 q 687 770 730 739 q 600 811 644 801 q 522 819 563 819 q 342 770 425 819 q 225 633 260 722 q 197 494 197 564 q 215 376 197 435 q 264 264 233 317 q 342 172 296 212 q 477 93 403 120 q 631 66 552 66 q 711 75 646 66 l 711 422 q 667 469 711 465 l 667 509 l 867 509 z "},"H":{"ha":920,"x_min":83,"x_max":889,"o":"m 241 89 q 246 62 241 73 q 260 47 250 52 q 286 39 270 42 l 286 0 l 83 0 l 83 39 q 118 54 109 44 q 127 89 127 64 l 127 794 q 118 830 127 820 q 83 844 109 840 l 83 880 l 286 880 l 286 844 q 251 830 260 840 q 241 794 241 820 l 241 536 l 730 536 l 730 794 q 719 831 728 821 q 684 844 709 840 l 684 880 l 889 880 l 889 844 q 851 831 861 840 q 842 794 842 821 l 842 89 q 852 54 842 64 q 889 39 863 44 l 889 0 l 684 0 l 684 39 q 720 54 710 44 q 730 89 730 64 l 730 456 l 241 456 l 241 89 z "},"I":{"ha":330,"x_min":0,"x_max":292,"o":"m 0 0 l 86 0 l 86 39 q 122 53 113 44 q 131 89 131 62 l 131 794 q 120 830 131 819 q 86 844 110 840 l 86 880 l 292 880 l 292 844 q 256 831 264 840 q 248 794 248 822 l 248 89 q 256 53 248 62 q 292 39 265 44 l 292 0 l 0 0 z "},"J":{"ha":672,"x_min":20,"x_max":639,"o":"m 20 172 l 136 269 l 164 239 q 142 183 142 217 q 168 124 142 153 q 228 83 193 96 q 294 72 260 72 q 380 89 339 72 q 444 139 420 106 q 471 199 465 165 q 478 281 478 233 l 478 794 q 469 831 478 822 q 433 844 460 840 l 433 880 l 639 880 l 639 844 q 604 830 613 840 q 595 794 595 820 l 595 300 q 519 66 595 151 q 297 -22 444 -18 l 283 -22 q 170 1 218 -22 q 87 66 121 24 q 20 172 53 107 z "},"K":{"ha":880,"x_min":0,"x_max":847,"o":"m 0 0 l 83 0 l 83 39 q 119 53 110 44 q 127 89 127 62 l 127 794 q 118 830 127 819 q 83 844 108 840 l 83 880 l 286 880 l 286 844 q 251 830 260 840 q 241 794 241 820 l 241 505 l 597 814 q 606 828 606 822 q 591 840 606 836 q 564 844 577 844 l 564 880 l 808 880 l 808 844 q 767 837 783 842 q 739 819 752 833 l 494 608 l 794 81 q 847 39 814 47 l 847 0 l 636 0 l 636 39 q 663 44 652 39 q 675 58 675 50 q 669 75 675 63 l 408 533 l 241 389 l 241 89 q 286 39 241 43 l 286 0 l 0 0 z "},"L":{"ha":742,"x_min":0,"x_max":714,"o":"m 0 0 l 81 0 l 81 39 q 117 54 107 44 q 127 89 127 64 l 127 794 q 117 830 127 819 q 81 844 106 840 l 81 880 l 289 880 l 289 844 q 252 830 263 840 q 241 794 241 819 l 241 86 l 589 86 q 655 103 634 86 q 677 164 675 121 l 714 164 l 714 0 l 0 0 z "},"M":{"ha":1031,"x_min":22,"x_max":991,"o":"m 189 0 l 22 0 l 22 39 q 64 81 60 49 l 195 803 l 195 811 q 164 844 195 840 l 164 880 l 311 880 l 514 380 l 705 880 l 859 880 l 859 844 q 825 808 825 841 q 827 800 825 806 q 828 789 828 794 l 950 81 q 963 52 954 60 q 991 39 971 44 l 991 0 l 803 0 l 803 39 q 839 69 839 43 l 839 81 l 728 722 l 530 205 l 475 205 l 269 717 l 153 81 l 153 69 q 189 39 153 39 l 189 0 z "},"N":{"ha":895,"x_min":0,"x_max":861,"o":"m 0 0 l 83 0 l 83 39 q 118 54 109 44 q 127 89 127 64 l 127 794 q 118 830 127 819 q 83 844 108 840 l 83 880 l 244 880 l 730 456 l 730 794 q 721 831 730 821 q 686 844 712 840 l 686 880 l 861 880 l 861 844 q 825 831 834 840 q 817 794 817 822 l 817 89 q 826 53 817 62 q 861 39 835 44 l 861 0 l 686 0 l 686 39 q 722 53 713 44 q 730 89 730 62 l 730 302 l 214 753 l 214 89 q 224 54 214 64 q 258 39 234 44 l 258 0 l 0 0 z "},"O":{"ha":1003,"x_min":72,"x_max":966,"o":"m 72 439 q 109 637 72 549 q 210 783 146 725 q 353 871 274 842 q 519 900 432 900 q 685 871 606 900 q 828 783 764 842 q 929 636 892 724 q 966 439 966 549 q 935 255 966 340 q 843 108 903 171 q 701 12 783 45 q 519 -22 618 -22 q 287 37 390 -22 q 128 201 184 96 q 72 439 72 307 m 595 811 q 514 817 539 817 q 344 767 416 817 q 235 630 272 717 q 197 439 197 543 q 217 295 197 364 q 277 173 237 226 q 379 91 317 121 q 519 61 441 61 q 660 91 600 61 q 761 172 721 120 q 822 292 802 224 q 842 439 842 359 q 827 564 842 504 q 783 675 812 625 q 706 763 753 726 q 595 811 659 799 z "},"P":{"ha":742,"x_min":83,"x_max":714,"o":"m 241 361 q 332 396 294 381 q 411 430 371 411 q 487 472 451 448 q 553 528 524 496 q 584 580 574 551 q 595 642 595 609 q 583 703 595 680 q 533 766 570 742 q 453 798 497 791 q 325 803 369 803 l 241 803 l 241 361 m 83 0 l 83 39 q 118 54 109 44 q 127 89 127 64 l 127 794 q 118 830 127 820 q 83 844 109 840 l 83 880 l 406 880 q 500 876 458 880 q 581 856 543 871 q 669 786 633 833 q 714 681 706 738 l 714 647 q 667 507 714 568 q 552 404 620 445 q 386 325 484 363 q 241 269 288 287 l 241 89 q 246 62 241 73 q 260 47 250 52 q 286 39 270 42 l 286 0 l 83 0 z "},"Q":{"ha":1059,"x_min":75,"x_max":1028,"o":"m 714 122 q 545 208 623 208 q 422 161 485 208 l 378 208 q 561 294 476 294 q 781 192 655 294 q 844 439 844 292 q 810 624 842 540 q 708 758 778 708 q 620 802 669 787 q 519 817 570 817 q 435 807 477 817 q 361 778 394 797 q 270 693 309 748 q 213 572 232 638 q 195 436 195 505 q 208 321 195 376 q 247 220 221 267 q 309 139 272 173 q 401 81 347 100 q 514 61 455 61 q 714 122 627 61 m 991 103 l 1028 103 l 1028 -22 q 961 -33 995 -33 q 900 -22 928 -33 q 846 8 872 -11 q 783 56 819 26 q 595 -17 684 -5 q 514 -22 545 -22 q 350 8 435 -22 q 148 175 220 54 q 75 439 75 296 q 100 602 75 523 q 175 745 125 681 q 272 830 218 797 q 390 881 326 864 q 519 897 453 897 q 567 895 553 897 q 707 861 640 890 q 825 783 774 831 q 911 667 876 734 q 953 554 939 610 q 966 441 966 498 q 938 275 966 355 q 852 125 909 194 q 880 101 862 117 q 913 76 897 85 q 945 64 929 67 l 956 64 q 981 74 971 64 q 991 103 991 85 z "},"R":{"ha":825,"x_min":0,"x_max":789,"o":"m 0 0 l 83 0 l 83 39 q 118 54 109 44 q 127 89 127 64 l 127 794 q 118 830 127 820 q 83 844 109 840 l 83 880 l 469 880 q 591 867 539 880 q 684 814 643 854 q 729 741 713 783 q 745 650 745 698 q 710 520 745 571 q 617 442 676 469 q 481 406 557 414 l 725 72 q 789 39 745 50 l 789 0 l 642 0 l 353 400 l 241 400 l 241 89 q 246 62 241 73 q 260 47 250 52 q 286 39 270 42 l 286 0 l 0 0 m 400 478 q 516 493 464 478 q 601 545 568 509 q 633 639 633 581 q 574 762 633 724 q 428 800 515 800 l 241 800 l 241 478 l 400 478 z "},"S":{"ha":783,"x_min":53,"x_max":745,"o":"m 53 200 l 183 283 l 208 248 q 175 186 175 218 q 222 114 175 152 q 395 58 290 58 q 505 75 456 58 q 601 131 565 92 q 636 225 636 170 q 633 256 636 248 q 585 332 626 304 q 486 378 545 359 l 302 439 q 222 472 260 452 q 152 520 183 491 q 106 589 121 549 q 92 661 92 625 q 107 743 92 704 q 153 811 123 782 q 411 897 247 897 q 567 866 498 897 q 708 772 635 835 l 611 656 l 578 681 q 589 722 589 713 q 514 803 589 770 q 403 822 456 822 q 283 798 342 822 q 222 750 248 783 q 197 681 197 717 q 208 639 197 658 q 254 590 225 604 q 347 553 282 576 l 497 503 q 605 460 559 483 q 685 401 650 437 q 736 311 721 364 q 745 241 745 279 q 715 124 745 180 q 633 36 685 69 q 403 -22 543 -22 q 289 -11 332 -22 q 186 32 229 4 q 114 100 144 60 q 53 200 83 140 z "},"T":{"ha":811,"x_min":39,"x_max":781,"o":"m 300 0 l 300 39 q 331 44 320 40 q 346 58 341 48 q 350 89 350 68 l 350 800 l 158 800 q 97 787 117 800 q 75 733 77 773 l 39 733 l 39 880 l 781 880 l 781 733 l 745 733 q 722 787 741 773 q 661 800 703 800 l 467 800 l 467 89 q 477 51 467 61 q 517 39 488 41 l 517 0 l 300 0 z "},"U":{"ha":839,"x_min":66,"x_max":808,"o":"m 472 0 q 378 4 419 0 q 295 21 336 9 q 216 56 254 33 q 123 150 160 94 q 75 269 85 206 q 66 355 66 309 q 91 525 66 436 q 158 703 116 613 q 191 762 161 710 q 220 819 220 813 l 220 822 q 209 838 218 835 q 175 844 199 841 l 175 880 l 389 880 l 389 844 q 298 765 339 829 q 231 622 256 700 q 197 486 206 544 q 186 380 186 416 q 244 178 186 260 q 469 83 311 83 l 650 83 l 650 794 q 640 830 650 819 q 606 844 630 840 l 606 880 l 808 880 l 808 844 q 773 830 783 840 q 764 794 764 820 l 764 89 q 774 54 764 64 q 808 39 784 44 l 808 0 l 472 0 z "},"V":{"ha":798,"x_min":25,"x_max":764,"o":"m 422 0 l 353 0 l 64 803 q 25 844 54 844 l 25 880 l 214 880 l 214 844 q 180 819 180 839 q 186 806 180 817 l 406 189 l 628 800 q 631 811 631 803 q 595 844 631 839 l 595 880 l 764 880 l 764 844 q 714 791 729 838 l 422 0 z "},"W":{"ha":1211,"x_min":25,"x_max":1178,"o":"m 353 0 l 64 803 q 25 844 54 844 l 25 880 l 211 880 l 211 844 q 178 819 178 839 q 183 806 178 817 l 408 178 l 561 600 l 486 803 q 447 844 476 844 l 447 880 l 631 880 l 631 844 q 595 819 595 840 q 600 806 595 817 l 819 189 l 1042 800 l 1042 814 q 1008 844 1042 840 l 1008 880 l 1178 880 l 1178 844 q 1128 791 1143 838 l 839 0 l 775 0 l 600 486 l 422 0 l 353 0 z "},"X":{"ha":852,"x_min":22,"x_max":825,"o":"m 239 0 l 22 0 l 22 39 q 97 89 67 43 l 358 467 l 119 811 q 61 844 104 840 l 61 880 l 302 880 l 302 844 q 258 817 258 838 q 262 809 258 815 q 267 800 266 802 l 436 553 l 606 798 q 611 817 611 814 q 600 837 611 829 q 572 844 589 844 l 572 880 l 781 880 l 781 844 q 741 830 756 840 q 711 798 726 819 l 489 478 l 755 89 q 792 48 781 58 q 825 39 803 39 l 825 0 l 583 0 l 583 39 q 628 64 628 47 q 623 78 628 73 l 408 389 l 205 86 q 197 64 197 74 q 239 39 197 39 l 239 0 z "},"Y":{"ha":783,"x_min":20,"x_max":750,"o":"m 283 0 l 283 39 q 320 54 310 44 q 330 89 330 64 l 330 330 l 75 794 q 52 828 63 815 q 20 844 41 841 l 20 880 l 225 880 l 225 844 q 205 838 213 844 q 197 822 197 831 q 203 803 197 819 l 406 419 l 608 808 q 611 822 611 811 q 600 838 611 832 q 578 844 589 844 l 578 880 l 750 880 l 750 844 q 700 803 720 841 l 450 330 l 450 89 q 454 62 450 73 q 468 47 458 52 q 494 39 478 42 l 494 0 l 283 0 z "},"Z":{"ha":728,"x_min":53,"x_max":692,"o":"m 692 0 l 53 0 l 53 72 l 530 803 l 225 803 q 166 791 184 803 q 144 742 149 779 l 111 742 l 111 880 l 672 880 l 672 817 l 192 83 l 572 83 q 632 98 611 83 q 656 150 652 112 l 692 150 l 692 0 z "},"[":{"ha":370,"x_min":161,"x_max":342,"o":"m 342 814 l 309 814 q 271 806 283 814 q 258 770 258 798 l 258 -103 q 271 -141 258 -132 q 309 -150 284 -150 l 342 -150 l 342 -216 l 161 -216 l 161 880 l 342 880 l 342 814 z "},"\\":{"ha":494,"x_min":22,"x_max":458,"o":"m 89 897 l 458 -117 l 389 -117 l 22 897 l 89 897 z "},"]":{"ha":302,"x_min":94,"x_max":272,"o":"m 94 814 l 94 880 l 272 880 l 272 -216 l 94 -216 l 94 -150 l 127 -150 q 165 -141 152 -150 q 178 -103 178 -132 l 178 770 l 94 814 z "},"^":{"ha":550,"x_min":164,"x_max":522,"o":"m 164 675 l 309 892 l 380 892 l 522 675 l 486 675 l 345 806 l 200 675 l 164 675 z "},"_":{"ha":53,"x_min":28,"x_max":659,"o":"m 28 -225 l 659 -225 l 659 -297 l 28 -297 l 28 -225 z "},"`":{"ha":481,"x_min":170,"x_max":453,"o":"m 453 675 l 411 675 l 208 803 q 170 856 170 828 q 180 883 170 872 q 208 895 191 895 q 241 885 222 895 q 275 861 261 876 l 453 675 z "},"a":{"ha":659,"x_min":66,"x_max":625,"o":"m 475 0 l 475 66 q 377 8 419 26 q 281 -11 335 -11 q 174 10 223 -11 q 96 73 125 31 q 66 172 66 114 q 88 260 66 216 q 147 334 110 304 q 287 399 208 380 q 475 428 367 417 q 430 511 471 485 q 328 536 389 536 q 158 447 203 536 l 127 447 l 127 555 q 339 608 230 608 q 464 581 409 608 q 550 504 519 553 q 581 392 581 454 l 581 81 q 591 46 581 56 q 625 33 602 35 l 625 0 l 475 0 m 475 172 l 475 355 q 339 332 391 344 q 241 289 288 319 q 196 241 214 273 q 178 178 178 210 q 218 99 178 123 q 297 75 258 75 q 475 172 400 75 z "},"b":{"ha":714,"x_min":61,"x_max":675,"o":"m 328 0 l 66 0 l 66 33 q 102 46 92 35 q 111 83 111 56 l 111 798 q 102 836 111 827 q 61 850 93 846 l 61 880 l 216 880 l 216 550 q 416 606 324 606 q 563 560 498 606 q 656 439 628 515 q 675 330 675 380 q 663 240 675 284 q 628 158 651 195 q 500 42 583 84 q 328 0 417 0 m 216 458 l 216 75 q 249 74 231 75 q 278 72 267 72 q 444 111 380 72 q 531 201 500 143 q 561 322 561 260 q 536 429 561 384 q 469 498 511 475 q 383 522 428 522 q 216 458 305 522 z "},"c":{"ha":659,"x_min":75,"x_max":631,"o":"m 578 -3 q 458 -17 510 -17 q 297 14 368 -17 q 138 134 201 50 q 75 317 75 217 q 121 451 75 384 q 235 562 166 519 q 370 606 304 606 q 631 505 513 606 l 539 403 l 511 425 q 525 464 525 448 q 456 522 525 498 q 389 530 422 530 q 295 500 342 530 q 217 420 248 471 q 186 314 186 369 q 229 182 186 241 q 333 91 271 123 q 450 58 395 58 q 513 73 487 58 q 547 117 539 87 l 578 117 l 578 -3 z "},"d":{"ha":728,"x_min":75,"x_max":689,"o":"m 539 0 l 539 69 q 446 8 494 28 q 336 -11 397 -11 q 244 8 290 -11 q 159 64 197 28 q 98 152 121 100 q 75 264 75 203 q 91 368 75 315 q 137 464 107 420 q 211 539 168 507 q 511 606 317 606 l 533 606 l 533 798 q 523 836 533 826 q 484 850 513 846 l 484 880 l 639 880 l 639 81 q 649 45 639 54 q 689 33 659 35 l 689 0 l 539 0 m 361 72 q 454 96 410 72 q 533 161 498 119 l 533 528 q 447 526 481 528 q 376 516 412 524 q 306 489 339 507 q 217 396 248 456 q 186 272 186 336 q 240 129 186 186 q 361 72 294 72 z "},"e":{"ha":644,"x_min":69,"x_max":614,"o":"m 186 375 l 500 375 q 459 490 498 447 q 350 533 421 533 q 236 486 286 533 q 186 375 186 439 m 586 28 q 383 -20 481 -20 q 229 32 301 -20 q 113 160 157 84 q 69 302 69 236 q 110 458 69 388 q 215 568 151 528 q 347 608 279 608 q 547 518 486 608 q 614 306 608 427 l 178 306 q 219 167 184 222 q 304 85 254 112 q 408 58 355 58 q 502 82 460 58 q 555 147 543 106 l 586 147 l 586 28 z "},"f":{"ha":439,"x_min":64,"x_max":411,"o":"m 81 0 l 81 33 q 117 47 108 37 q 127 83 125 56 l 127 514 l 64 514 l 64 591 l 127 591 q 133 707 127 656 q 156 800 139 757 q 208 870 173 843 q 300 897 243 897 q 411 878 331 897 l 411 764 l 380 764 q 351 810 372 792 q 302 828 330 828 q 257 804 272 828 q 238 731 242 780 q 233 591 233 682 l 355 591 l 355 514 l 233 514 l 233 83 q 243 46 233 56 q 278 33 253 35 l 278 0 l 81 0 z "},"g":{"ha":728,"x_min":58,"x_max":689,"o":"m 58 -153 l 167 -58 l 189 -78 q 172 -117 172 -104 q 192 -153 172 -139 q 342 -197 249 -197 q 443 -174 392 -197 q 526 -113 493 -151 q 558 -39 558 -76 q 533 69 558 12 q 442 9 490 26 q 325 -8 393 -8 q 211 18 268 -8 q 114 105 153 45 q 75 256 75 165 q 109 394 75 332 q 195 499 142 456 q 311 566 249 543 q 431 589 373 589 l 689 589 l 689 555 q 649 543 659 553 q 639 500 639 532 l 639 109 q 650 37 639 85 q 661 -36 661 -10 q 630 -152 661 -101 q 542 -233 598 -203 q 350 -278 456 -278 q 256 -267 321 -278 q 151 -228 199 -257 q 58 -153 103 -199 m 533 158 l 533 514 l 472 514 q 286 467 355 514 q 215 377 240 431 q 189 264 189 323 q 240 121 189 172 q 355 69 290 69 q 450 95 402 69 q 533 158 497 120 z "},"h":{"ha":728,"x_min":69,"x_max":689,"o":"m 75 0 l 75 33 q 110 46 100 35 q 119 83 119 57 l 119 798 q 110 836 119 826 q 69 850 100 846 l 69 880 l 225 880 l 225 525 q 428 608 322 608 q 539 581 488 608 q 642 378 642 531 l 642 83 q 652 46 642 56 q 689 33 662 35 l 689 0 l 492 0 l 492 33 q 528 46 517 35 q 539 83 539 57 l 539 347 q 522 460 539 416 q 447 519 505 503 q 400 525 414 525 q 225 436 319 525 l 225 83 q 234 47 225 57 q 269 33 243 37 l 269 0 l 75 0 z "},"i":{"ha":302,"x_min":61,"x_max":272,"o":"m 175 839 q 219 811 201 833 q 236 764 236 790 q 231 736 236 753 q 202 703 220 713 q 161 692 184 692 q 109 712 132 692 q 86 766 86 733 q 109 818 86 798 q 161 839 131 839 l 175 839 m 272 33 l 272 0 l 61 0 l 61 33 q 100 45 90 35 q 111 83 111 56 l 111 509 q 100 545 111 535 q 61 558 90 554 l 61 591 l 222 591 l 222 83 q 233 45 222 56 q 272 33 243 35 z "},"j":{"ha":330,"x_min":17,"x_max":300,"o":"m 17 -258 l 17 -147 l 50 -147 q 109 -197 58 -197 l 114 -197 q 178 -89 178 -197 l 178 505 q 168 544 178 534 q 127 558 158 554 l 127 591 l 286 591 l 286 -47 q 273 -167 286 -117 q 216 -244 259 -216 q 103 -275 170 -275 q 17 -258 55 -275 m 153 770 q 174 823 153 801 q 225 844 195 844 q 234 843 228 844 q 241 842 240 842 q 284 816 269 838 q 300 770 300 794 q 294 742 300 750 q 267 707 286 720 q 228 694 248 694 q 175 715 197 694 q 153 770 153 736 z "},"k":{"ha":700,"x_min":69,"x_max":667,"o":"m 72 0 l 72 33 q 107 46 97 35 q 117 83 117 57 l 117 798 q 108 836 117 827 q 69 850 99 846 l 69 880 l 222 880 l 222 336 l 450 525 q 458 536 458 529 q 444 551 458 544 q 419 558 429 558 l 419 591 l 636 591 l 636 558 l 633 558 q 615 555 623 558 q 601 546 608 551 q 586 536 593 541 l 392 386 l 611 72 q 667 33 631 42 l 667 0 l 450 0 l 450 33 q 478 39 464 33 q 492 56 492 44 q 486 66 492 61 l 317 325 l 222 253 l 222 83 q 230 47 222 57 q 264 33 238 37 l 264 0 l 72 0 z "},"l":{"ha":302,"x_min":0,"x_max":272,"o":"m 0 0 l 64 0 l 64 33 q 94 41 85 37 q 107 55 103 45 q 111 83 111 64 l 111 800 q 102 837 111 828 q 64 850 92 846 l 64 880 l 222 880 l 222 83 q 232 47 222 56 q 272 33 242 38 l 272 0 l 0 0 z "},"m":{"ha":1114,"x_min":69,"x_max":1086,"o":"m 75 0 l 75 33 q 110 46 100 35 q 119 83 119 57 l 119 505 q 110 544 119 534 q 69 558 100 554 l 69 591 l 222 591 l 225 525 q 416 606 319 606 q 608 503 543 606 q 825 606 710 606 q 903 595 869 606 q 1003 529 964 581 q 1042 411 1042 477 l 1042 83 q 1052 46 1042 57 q 1086 33 1063 35 l 1086 0 l 892 0 l 892 33 q 928 47 920 37 q 936 83 936 56 l 936 383 q 928 452 936 425 q 892 500 920 479 q 806 525 848 525 q 750 514 780 525 q 697 486 721 504 q 655 449 677 474 q 633 406 633 423 l 633 83 q 643 47 633 58 q 675 33 652 35 l 675 0 l 484 0 l 484 33 q 516 46 508 35 q 525 83 525 58 l 525 383 q 509 456 525 424 q 463 507 492 489 q 392 525 433 525 q 225 439 315 525 l 225 83 q 234 47 225 58 q 267 33 243 35 l 267 0 l 75 0 z "},"n":{"ha":728,"x_min":69,"x_max":689,"o":"m 75 0 l 75 33 q 110 46 100 35 q 119 83 119 57 l 119 505 q 110 544 119 534 q 69 558 100 554 l 69 591 l 225 591 l 225 525 q 323 586 271 564 q 428 608 376 608 q 535 572 486 608 q 613 480 584 535 q 642 378 642 425 l 642 83 q 646 54 642 65 q 661 39 650 43 q 689 33 673 34 l 689 0 l 494 0 l 494 33 q 529 48 518 37 q 539 83 539 59 l 539 339 q 527 429 539 387 q 483 498 514 471 q 403 525 452 525 q 225 436 319 525 l 225 83 q 234 47 225 57 q 269 33 243 37 l 269 0 l 75 0 z "},"o":{"ha":714,"x_min":66,"x_max":686,"o":"m 686 294 q 645 136 686 212 q 531 15 603 61 q 375 -31 459 -31 q 221 16 292 -31 q 108 137 149 62 q 66 294 66 212 q 90 415 66 358 q 155 517 113 472 q 254 588 197 562 q 372 614 311 614 q 529 571 458 614 q 644 454 601 528 q 686 294 686 380 m 375 547 q 231 474 282 547 q 180 294 180 401 q 200 172 180 229 q 264 80 220 115 q 375 45 308 45 q 464 65 426 45 q 527 121 502 85 q 564 201 552 157 q 575 294 575 244 q 549 408 575 348 q 478 508 524 469 q 375 547 432 547 z "},"p":{"ha":700,"x_min":61,"x_max":672,"o":"m 64 -278 l 64 -244 q 101 -231 92 -240 q 111 -195 111 -221 l 111 503 q 101 544 111 534 q 61 558 91 554 l 61 589 l 214 589 l 214 528 q 311 587 267 568 q 411 606 355 606 q 538 567 478 606 q 635 464 598 528 q 672 334 672 401 q 653 219 672 273 q 598 122 635 165 q 511 47 562 78 q 406 10 464 20 q 272 0 347 0 l 214 0 l 214 -195 q 223 -231 214 -221 q 261 -244 233 -240 l 261 -278 l 64 -278 m 214 439 l 214 75 q 248 74 230 75 q 278 72 267 72 q 444 111 370 72 q 530 201 500 144 q 561 325 561 258 q 551 393 561 359 q 520 456 541 427 q 465 505 500 486 q 386 525 431 525 q 214 439 310 525 z "},"q":{"ha":714,"x_min":69,"x_max":677,"o":"m 478 -278 l 478 -244 q 517 -231 506 -239 q 528 -195 528 -222 l 528 50 q 336 -17 428 -17 q 229 8 283 -17 q 135 78 174 34 q 81 175 96 121 q 69 258 69 234 q 83 354 69 307 q 122 443 96 401 q 186 514 149 485 q 271 561 225 545 q 367 584 317 578 q 469 591 416 590 l 677 591 l 677 558 q 642 545 651 554 q 633 509 633 535 l 633 -195 q 642 -231 633 -222 q 677 -244 650 -239 l 677 -278 l 478 -278 m 355 66 q 528 144 439 66 l 528 514 q 467 517 509 517 q 281 469 351 517 q 209 381 235 436 q 183 267 183 327 q 192 205 183 234 q 223 136 200 168 q 281 85 247 104 q 355 66 316 66 z "},"r":{"ha":453,"x_min":0,"x_max":422,"o":"m 0 0 l 72 0 l 72 33 q 107 46 97 35 q 117 83 117 57 l 117 509 q 108 545 117 535 q 72 558 99 554 l 72 591 l 214 591 l 214 545 q 342 600 270 600 q 422 586 378 600 l 422 464 l 392 464 q 361 501 383 488 q 314 514 339 514 q 252 492 278 514 q 225 436 225 471 l 225 86 q 236 46 225 57 q 275 33 246 35 l 275 0 l 0 0 z "},"s":{"ha":578,"x_min":50,"x_max":547,"o":"m 50 89 l 147 189 l 172 161 q 158 127 158 141 q 209 78 158 96 q 314 61 260 61 q 400 90 357 61 q 444 155 444 118 q 334 253 444 217 q 253 273 281 266 q 192 295 226 280 q 136 328 159 309 q 83 441 83 372 q 93 491 83 465 q 119 536 102 517 q 174 577 142 560 q 239 601 205 593 q 306 608 273 608 q 384 598 344 608 q 459 570 424 589 q 525 525 495 551 l 444 422 l 416 444 q 428 475 428 459 q 381 522 428 505 q 292 539 334 539 q 234 527 260 539 q 195 497 209 515 q 180 458 180 478 q 198 418 180 437 q 253 389 216 399 q 347 361 306 372 q 422 336 387 349 q 486 300 457 322 q 520 266 507 286 q 541 224 534 247 q 547 175 547 201 q 536 109 547 153 q 446 13 509 43 q 302 -17 383 -17 q 163 7 220 -17 q 50 89 106 31 z "},"t":{"ha":425,"x_min":41,"x_max":389,"o":"m 119 514 l 41 514 l 41 591 l 119 591 l 119 750 l 225 775 l 225 591 l 361 591 l 361 514 l 225 514 l 225 125 q 243 76 225 93 q 289 58 262 58 q 332 74 313 58 q 355 117 351 89 l 389 117 l 389 3 q 272 -14 335 -14 q 162 21 205 -14 q 119 127 119 55 l 119 514 z "},"u":{"ha":714,"x_min":61,"x_max":681,"o":"m 631 591 l 631 86 q 641 46 631 57 q 681 33 652 35 l 681 0 l 525 0 l 525 64 q 325 -17 420 -17 q 267 -11 311 -17 q 145 65 184 7 q 106 211 106 124 l 106 509 q 96 545 106 535 q 61 558 87 554 l 61 591 l 211 591 l 211 236 q 225 136 211 175 q 286 78 239 98 q 347 64 318 64 q 525 155 427 64 l 525 509 q 516 545 525 535 q 481 558 507 554 l 481 591 l 631 591 z "},"v":{"ha":631,"x_min":25,"x_max":600,"o":"m 353 -3 l 272 -3 l 72 511 q 54 546 63 535 q 25 558 45 556 l 25 591 l 208 591 l 208 558 l 203 555 q 175 536 175 555 q 180 522 175 533 l 325 144 l 467 511 q 469 528 469 517 q 458 550 469 543 q 428 558 446 558 l 428 591 l 600 591 l 600 558 q 571 549 581 558 q 553 517 562 539 l 353 -3 z "},"w":{"ha":908,"x_min":17,"x_max":880,"o":"m 334 -3 l 256 -3 l 64 511 q 46 546 55 535 q 17 558 37 556 l 17 591 l 197 591 l 197 558 l 192 555 q 164 536 164 555 q 170 522 164 533 l 306 153 l 408 419 q 395 460 406 425 q 374 519 384 495 q 355 550 364 543 q 334 558 343 558 l 334 591 l 505 591 l 505 558 q 475 539 475 558 q 481 525 475 531 l 616 155 l 747 511 q 750 528 750 517 q 738 550 750 543 q 708 558 726 558 l 708 591 l 880 591 l 880 558 q 852 548 861 558 q 836 517 843 538 l 647 -3 l 567 -3 l 450 317 l 334 -3 z "},"x":{"ha":631,"x_min":22,"x_max":600,"o":"m 205 0 l 22 0 l 22 33 q 72 61 52 37 l 250 319 l 103 530 q 50 558 85 554 l 50 591 l 258 591 l 258 558 q 236 553 246 558 q 225 539 225 547 q 231 525 225 536 l 330 380 l 422 517 q 428 533 428 533 q 418 550 428 543 q 395 558 408 556 l 395 591 l 578 591 l 578 558 q 519 525 543 558 l 375 314 l 547 66 q 600 33 568 37 l 600 0 l 389 0 l 389 33 q 431 53 431 33 q 428 64 431 61 l 294 253 l 172 66 q 171 61 172 65 q 170 56 170 57 q 182 39 170 45 q 205 33 195 33 l 205 0 z "},"y":{"ha":644,"x_min":20,"x_max":606,"o":"m 339 -81 q 244 -225 304 -173 q 103 -278 184 -278 q 36 -269 72 -278 l 36 -150 l 69 -150 q 122 -197 78 -197 q 189 -172 160 -197 q 243 -104 214 -154 q 272 -20 272 -54 q 267 5 272 -11 l 64 514 q 46 546 54 536 q 20 558 37 556 l 20 591 l 203 591 l 203 558 q 172 536 172 553 q 178 522 172 528 l 334 122 l 475 511 q 478 525 478 517 q 444 558 478 553 l 444 591 l 606 591 l 606 558 q 564 517 577 551 l 339 -81 z "},"z":{"ha":522,"x_min":45,"x_max":492,"o":"m 492 0 l 45 0 l 45 75 l 345 522 l 158 522 q 122 507 134 522 q 103 464 111 491 l 72 464 l 72 591 l 467 591 l 467 522 l 167 78 l 375 78 q 458 144 446 78 l 492 144 l 492 0 z "},"{":{"ha":578,"x_min":136,"x_max":550,"o":"m 550 933 l 550 903 q 465 889 496 901 q 419 855 434 878 q 401 802 405 833 q 397 720 397 770 l 397 642 q 388 517 397 561 q 340 443 378 474 q 222 392 302 411 q 340 341 302 373 q 388 266 378 310 q 397 142 397 222 l 397 64 q 401 -18 397 14 q 420 -71 405 -49 q 465 -105 435 -94 q 550 -117 496 -116 l 550 -150 q 408 -132 458 -149 q 333 -71 357 -116 q 309 64 309 -26 l 309 195 q 293 298 309 262 q 241 350 277 334 q 136 375 205 366 l 136 411 q 240 435 204 419 q 293 487 277 452 q 309 589 309 522 l 309 720 q 333 854 309 809 q 408 916 357 899 q 550 933 458 932 z "},"|":{"ha":411,"x_min":306,"x_max":383,"o":"m 306 964 l 383 964 l 383 -297 l 306 -297 l 306 964 z "},"}":{"ha":578,"x_min":139,"x_max":550,"o":"m 139 933 q 279 915 227 932 q 354 853 330 898 q 378 720 378 808 l 378 589 q 393 487 378 522 q 445 436 409 452 q 550 411 481 420 l 550 375 q 445 350 480 366 q 393 298 409 334 q 378 195 378 262 l 378 64 q 365 -46 378 -5 q 323 -109 351 -87 q 250 -140 294 -132 q 139 -150 205 -149 l 139 -117 q 240 -96 208 -116 q 281 -41 273 -77 q 289 64 289 -6 l 289 142 q 294 238 289 201 q 317 305 299 275 q 371 357 335 336 q 467 392 406 378 q 348 442 387 410 q 299 519 310 473 q 289 642 289 564 l 289 720 q 281 825 289 789 q 241 880 273 861 q 139 903 209 900 l 139 933 z "},"~":{"ha":550,"x_min":167,"x_max":519,"o":"m 519 859 q 403 733 492 733 q 365 739 389 733 q 322 747 340 744 q 258 758 272 758 q 197 705 214 758 l 167 705 q 286 833 193 833 q 345 825 311 833 q 428 806 412 806 q 486 859 471 806 l 519 859 z "},"":{"ha":302,"x_min":153,"x_max":267,"o":"m 153 342 l 267 342 l 267 228 l 153 228 l 153 342 z "},"‚":{"ha":456,"x_min":0,"x_max":0,"o":""},"ƒ":{"ha":456,"x_min":0,"x_max":0,"o":""},"„":{"ha":456,"x_min":0,"x_max":0,"o":""},"…":{"ha":456,"x_min":0,"x_max":0,"o":""},"†":{"ha":456,"x_min":0,"x_max":0,"o":""},"‡":{"ha":456,"x_min":0,"x_max":0,"o":""},"‰":{"ha":456,"x_min":0,"x_max":0,"o":""},"Š":{"ha":456,"x_min":0,"x_max":0,"o":""},"‹":{"ha":947,"x_min":192,"x_max":917,"o":"m 917 705 l 917 628 l 300 375 l 917 127 l 917 47 l 192 345 l 192 408 l 917 705 z "},"Œ":{"ha":456,"x_min":0,"x_max":0,"o":""},"‘":{"ha":289,"x_min":117,"x_max":253,"o":"m 117 739 l 208 884 l 253 884 l 189 747 l 236 747 l 236 625 l 117 625 l 117 739 z "},"’":{"ha":289,"x_min":122,"x_max":258,"o":"m 170 628 l 122 628 l 186 764 l 142 764 l 142 884 l 258 884 l 258 783 l 170 628 z "},"“":{"ha":467,"x_min":117,"x_max":428,"o":"m 117 739 l 208 884 l 253 884 l 189 747 l 236 747 l 236 625 l 117 625 l 117 739 m 383 884 l 428 884 l 364 747 l 411 747 l 411 625 l 292 625 l 292 728 l 383 884 z "},"”":{"ha":467,"x_min":122,"x_max":433,"o":"m 433 772 l 342 628 l 297 628 l 361 764 l 314 764 l 314 884 l 433 884 l 433 772 m 170 628 l 122 628 l 186 764 l 142 764 l 142 884 l 258 884 l 258 783 l 170 628 z "},"–":{"ha":481,"x_min":81,"x_max":441,"o":"m 81 347 l 441 347 l 441 269 l 81 269 l 81 347 z "},"—":{"ha":1114,"x_min":111,"x_max":1075,"o":"m 111 347 l 1075 347 l 1075 269 l 111 269 l 111 347 z "},"™":{"ha":456,"x_min":0,"x_max":0,"o":""},"š":{"ha":456,"x_min":0,"x_max":0,"o":""},"›":{"ha":947,"x_min":192,"x_max":917,"o":"m 192 705 l 917 408 l 917 345 l 192 47 l 192 127 l 806 375 l 192 628 l 192 705 z "},"œ":{"ha":456,"x_min":0,"x_max":0,"o":""},"Ÿ":{"ha":659,"x_min":50,"x_max":631,"o":"m 481 336 l 481 519 l 306 519 q 232 498 267 519 q 197 433 197 476 q 229 361 197 386 q 314 336 261 336 l 481 336 m 631 591 l 631 558 q 600 551 609 555 q 587 537 591 547 q 583 509 583 527 l 583 78 q 587 50 583 59 q 603 38 591 41 q 631 33 614 34 l 631 0 l 436 0 l 436 33 q 470 48 460 37 q 481 83 481 59 l 481 267 l 428 267 l 192 0 l 50 0 l 50 33 q 83 43 62 36 q 111 58 104 51 l 306 269 q 190 294 237 276 q 115 347 142 312 q 89 436 89 382 q 112 518 89 484 q 179 572 134 553 q 286 591 224 591 l 631 591 z "},"¡":{"ha":852,"x_min":33,"x_max":817,"o":"m 283 97 q 320 112 306 97 q 358 167 335 126 l 383 220 l 106 803 q 77 831 98 820 q 33 844 55 842 l 33 880 l 272 880 l 272 844 q 231 817 231 838 q 232 810 231 814 q 233 803 233 806 l 439 342 l 636 781 q 637 786 636 782 q 639 791 639 790 q 617 828 639 811 q 575 844 595 844 l 575 880 l 817 880 l 817 844 q 730 798 747 833 l 428 131 q 365 30 397 65 q 289 -5 332 -5 q 238 1 265 -5 q 192 20 210 8 l 183 114 l 214 127 q 283 97 245 97 m 250 1042 l 309 1042 q 351 998 315 1016 q 431 981 387 981 q 502 997 469 981 q 547 1042 534 1013 l 606 1042 q 551 952 604 985 q 428 920 498 920 q 302 951 356 920 q 248 1036 248 983 q 249 1039 248 1038 q 250 1042 250 1041 z "},"¢":{"ha":644,"x_min":20,"x_max":606,"o":"m 339 -81 q 244 -225 304 -173 q 103 -278 184 -278 q 36 -269 72 -278 l 36 -150 l 69 -150 q 122 -197 78 -197 q 189 -172 160 -197 q 243 -104 214 -154 q 272 -20 272 -54 q 267 5 272 -11 l 64 514 q 46 546 54 536 q 20 558 37 556 l 20 591 l 203 591 l 203 558 q 172 536 172 553 q 178 522 172 528 l 334 122 l 475 511 q 478 525 478 517 q 444 558 478 553 l 444 591 l 606 591 l 606 558 q 564 517 577 551 l 339 -81 m 164 781 l 222 781 q 265 737 229 755 q 345 720 301 720 q 415 735 383 720 q 461 781 448 751 l 519 781 q 465 691 517 724 q 342 659 412 659 q 216 690 270 659 q 161 775 161 722 l 164 781 z "},"£":{"ha":606,"x_min":109,"x_max":572,"o":"m 292 220 l 403 220 l 403 106 l 292 106 l 292 220 m 292 591 l 403 591 l 403 481 l 292 481 l 292 591 m 109 383 l 572 383 l 572 306 l 109 306 l 109 383 z "},"¤":{"ha":644,"x_min":100,"x_max":606,"o":"m 164 659 l 236 583 q 358 623 302 623 q 467 583 418 623 l 530 659 l 606 583 l 539 519 q 575 400 575 454 q 530 286 575 343 l 606 222 l 530 150 l 467 214 q 350 175 413 175 q 236 214 287 175 l 172 150 l 100 222 l 164 278 q 122 395 122 340 q 172 519 122 460 l 100 583 l 164 659 m 467 400 q 445 472 467 445 q 395 509 422 499 q 347 519 368 519 q 267 488 306 519 q 228 400 228 457 q 265 305 228 332 q 347 278 302 278 q 426 309 385 278 q 467 400 467 340 z "},"¥":{"ha":302,"x_min":153,"x_max":267,"o":"m 153 342 l 267 342 l 267 228 l 153 228 l 153 342 z "},"¦":{"ha":342,"x_min":233,"x_max":311,"o":"m 233 878 l 311 878 l 311 3 l 233 3 l 233 878 z "},"§":{"ha":742,"x_min":103,"x_max":705,"o":"m 570 703 q 400 825 517 825 q 318 807 354 825 q 263 759 283 788 q 244 697 244 729 q 268 636 244 665 q 336 591 292 606 q 463 556 383 578 q 608 493 543 534 q 684 389 673 452 q 686 353 686 378 q 581 175 686 243 q 673 92 641 140 q 705 -8 705 44 q 672 -119 705 -66 q 604 -191 645 -163 q 515 -234 564 -220 q 414 -248 467 -248 q 275 -223 342 -248 q 162 -153 208 -199 q 103 -47 115 -108 l 214 -39 q 301 -133 250 -104 q 406 -161 351 -161 q 550 -119 490 -161 q 585 -79 572 -104 q 597 -25 597 -54 q 570 50 597 16 q 489 94 543 83 q 398 113 436 105 q 314 134 359 120 q 214 175 269 147 q 148 237 172 197 q 125 328 125 278 q 158 437 125 384 q 256 519 191 490 q 175 579 205 544 q 144 694 144 614 q 219 847 144 789 q 400 905 294 905 q 573 856 500 905 q 661 725 647 806 l 570 703 m 500 195 q 568 258 544 230 q 591 328 591 287 q 562 391 591 366 q 496 430 533 416 q 402 460 460 444 q 325 489 345 477 q 301 469 323 487 q 266 437 279 450 q 240 402 252 424 q 228 358 228 380 q 236 328 228 345 q 266 283 244 302 q 317 252 288 264 q 392 226 347 239 q 500 195 437 213 z "},"¨":{"ha":798,"x_min":0,"x_max":766,"o":"m 0 0 l 81 0 l 81 39 q 117 54 107 44 q 127 89 127 64 l 127 794 q 117 830 127 819 q 81 844 106 840 l 81 880 l 733 880 l 733 733 l 700 733 q 672 788 696 775 q 606 800 649 800 l 241 800 l 241 539 l 555 539 q 619 583 612 539 l 653 583 l 653 414 l 619 414 q 555 458 612 458 l 241 458 l 241 86 l 642 86 q 707 104 685 86 q 730 164 728 121 l 766 164 l 766 0 l 0 0 m 447 983 q 472 1034 450 1020 q 511 1047 494 1047 q 555 1029 534 1047 q 575 983 575 1011 q 555 933 575 953 q 514 914 535 914 q 470 931 490 914 q 447 983 450 947 m 264 983 q 288 1033 266 1019 q 328 1047 311 1047 q 371 1029 351 1047 q 392 983 392 1011 q 372 933 392 952 q 330 914 351 914 q 287 931 308 914 q 264 983 266 949 z "},"©":{"ha":1031,"x_min":53,"x_max":1003,"o":"m 677 528 q 624 616 671 597 q 533 636 576 636 q 450 609 486 636 q 394 537 414 581 q 375 441 375 493 q 394 347 375 391 q 452 274 413 302 q 545 244 490 246 q 636 274 594 244 q 677 355 677 304 l 770 355 q 719 240 760 281 q 626 186 677 199 q 525 172 575 172 q 394 219 447 179 q 313 319 340 258 q 286 444 286 380 q 315 578 286 515 q 402 680 345 641 q 533 720 459 720 q 591 712 555 720 q 665 686 628 705 q 732 627 701 667 q 770 528 762 587 l 677 528 m 897 436 l 897 453 q 850 624 897 541 q 718 759 804 707 q 525 811 632 811 q 347 766 431 811 q 210 641 262 720 q 153 467 157 561 l 153 447 q 201 270 153 357 q 332 127 250 182 q 509 72 414 72 l 525 72 q 706 116 620 72 q 845 241 792 161 q 897 419 897 321 l 897 436 m 53 467 q 78 590 53 518 q 158 732 102 661 q 305 850 213 802 q 525 903 397 899 q 782 831 673 903 q 947 652 890 760 q 1003 444 1003 545 q 952 222 1003 313 q 825 79 902 131 q 671 5 748 27 q 533 -17 594 -17 q 356 15 442 -17 q 200 109 269 47 q 92 262 132 172 q 53 467 53 353 z "},"ª":{"ha":867,"x_min":64,"x_max":833,"o":"m 403 17 q 268 91 331 44 q 159 201 205 138 q 89 336 113 264 q 64 486 64 408 q 104 665 64 583 q 216 804 144 747 q 380 884 288 861 q 514 897 450 897 q 681 869 610 897 q 833 770 756 837 l 722 659 l 692 686 q 703 720 703 701 q 676 768 703 745 q 606 803 650 790 q 511 817 562 817 q 402 801 455 817 q 304 752 350 785 q 229 666 258 719 q 192 539 199 612 l 519 539 l 519 456 l 192 456 q 241 290 199 364 q 347 165 283 216 q 479 89 410 115 q 611 64 549 64 q 708 86 669 64 q 755 153 747 109 l 791 153 l 791 -8 q 614 -20 667 -20 q 503 -12 554 -20 q 403 17 452 -3 z "},"«":{"ha":453,"x_min":103,"x_max":414,"o":"m 205 472 l 261 472 l 197 306 l 261 134 l 205 134 l 103 306 l 205 472 m 414 472 l 347 306 l 414 134 l 358 134 l 253 306 l 358 472 l 414 472 z "},"¬":{"ha":672,"x_min":56,"x_max":633,"o":"m 56 425 l 633 425 l 633 122 l 555 122 l 555 347 l 56 347 l 56 425 z "},"­":{"ha":425,"x_min":81,"x_max":389,"o":"m 81 248 l 81 342 l 389 342 l 389 248 l 81 248 z "},"®":{"ha":1044,"x_min":66,"x_max":1006,"o":"m 905 444 l 905 458 q 859 629 905 547 q 730 763 813 711 q 539 814 646 814 q 360 768 444 814 q 223 644 275 723 q 167 472 171 564 q 165 465 167 471 q 164 456 164 458 q 192 323 164 391 q 270 200 219 256 q 386 113 321 144 q 522 81 451 81 q 529 82 523 81 q 539 83 535 83 q 716 128 631 83 q 853 252 802 173 q 905 428 905 331 l 905 444 m 66 472 q 113 646 66 545 q 267 824 160 747 q 539 905 373 901 q 738 864 648 905 q 886 754 827 822 q 976 608 945 686 q 1006 453 1006 529 q 956 232 1006 323 q 831 89 905 140 q 680 14 757 37 q 547 -8 603 -8 q 371 23 456 -8 q 215 118 285 55 q 105 270 144 180 q 66 472 66 359 m 364 694 l 636 694 q 741 657 704 694 q 778 567 778 621 q 735 469 778 511 q 616 425 693 427 l 778 192 l 686 192 l 528 425 l 447 425 l 447 192 l 364 192 l 364 694 m 447 633 l 447 484 l 595 484 q 671 509 643 484 q 700 567 700 534 q 676 614 700 595 q 606 633 653 633 l 447 633 z "},"¯":{"ha":330,"x_min":41,"x_max":353,"o":"m 86 0 l 86 39 q 122 53 113 44 q 131 89 131 62 l 131 794 q 120 830 131 819 q 86 844 110 840 l 86 880 l 292 880 l 292 844 q 256 831 264 840 q 248 794 248 822 l 248 89 q 256 53 248 62 q 292 39 265 44 l 292 0 l 86 0 m 225 983 q 250 1033 227 1019 q 289 1047 272 1047 q 332 1029 312 1047 q 353 983 353 1011 q 333 933 353 953 q 292 914 313 914 q 248 931 268 914 q 225 983 227 947 m 41 983 q 66 1034 44 1020 q 106 1047 88 1047 q 149 1029 129 1047 q 170 983 170 1011 q 150 933 170 953 q 109 914 130 914 q 64 931 83 914 q 41 983 44 947 z "},"°":{"ha":439,"x_min":172,"x_max":411,"o":"m 347 806 q 330 850 347 834 q 286 867 313 867 q 248 850 265 867 q 231 806 231 833 q 248 761 231 777 q 286 745 264 745 q 330 760 313 745 q 347 806 347 776 m 172 806 q 187 867 172 840 q 228 910 202 895 q 286 925 253 925 q 350 910 322 925 q 395 867 378 895 q 411 806 411 839 q 393 744 411 771 q 346 702 374 718 q 286 686 317 686 q 206 718 240 686 q 172 806 172 750 z "},"±":{"ha":825,"x_min":172,"x_max":798,"o":"m 456 722 l 517 722 l 517 433 l 798 433 l 798 372 l 517 372 l 517 83 l 456 83 l 456 372 l 172 372 l 172 433 l 456 433 l 456 722 m 183 61 l 798 61 l 798 3 l 183 3 l 183 61 z "},"²":{"ha":330,"x_min":0,"x_max":292,"o":"m 0 0 l 86 0 l 86 39 q 122 53 113 44 q 131 89 131 62 l 131 794 q 120 830 131 819 q 86 844 110 840 l 86 880 l 292 880 l 292 844 q 256 831 264 840 q 248 794 248 822 l 248 89 q 256 53 248 62 q 292 39 265 44 l 292 0 l 0 0 m 122 983 q 146 1033 124 1019 q 186 1047 169 1047 q 230 1029 209 1047 q 250 983 250 1011 q 230 933 250 953 q 189 914 210 914 q 145 931 166 914 q 122 983 124 949 z "},"³":{"ha":302,"x_min":61,"x_max":272,"o":"m 175 839 q 219 811 201 833 q 236 764 236 790 q 231 736 236 753 q 202 703 220 713 q 161 692 184 692 q 109 712 132 692 q 86 766 86 733 q 109 818 86 798 q 161 839 131 839 l 175 839 m 272 33 l 272 0 l 61 0 l 61 33 q 100 45 90 35 q 111 83 111 56 l 111 509 q 100 545 111 535 q 61 558 90 554 l 61 591 l 222 591 l 222 83 q 233 45 222 56 q 272 33 243 35 z "},"´":{"ha":522,"x_min":178,"x_max":492,"o":"m 178 766 l 441 928 l 492 836 l 208 717 l 178 766 z "},"µ":{"ha":783,"x_min":117,"x_max":747,"o":"m 659 616 l 659 144 q 705 56 659 56 q 747 69 718 56 l 747 47 l 628 -14 q 616 -17 625 -17 q 553 94 561 -17 q 504 48 523 66 q 459 14 484 31 q 407 -13 434 -3 q 353 -22 380 -22 q 203 97 239 -22 q 215 -54 203 41 q 231 -178 228 -149 q 172 -258 231 -258 q 132 -237 146 -258 q 117 -186 117 -216 q 127 -111 117 -156 q 164 367 164 98 l 164 616 l 281 616 l 281 228 q 303 99 281 151 q 392 47 325 47 q 542 147 476 47 l 542 616 l 659 616 z "},"¶":{"ha":728,"x_min":69,"x_max":697,"o":"m 522 806 l 422 806 l 422 -239 l 328 -239 l 328 275 q 138 369 207 281 q 69 575 69 457 q 106 731 69 658 q 216 851 142 805 q 392 897 290 897 l 697 897 l 697 806 l 614 806 l 614 -239 l 522 -239 l 522 806 z "},"∙":{"ha":302,"x_min":153,"x_max":267,"o":"m 153 342 l 267 342 l 267 228 l 153 228 l 153 342 z "},"¸":{"ha":644,"x_min":69,"x_max":614,"o":"m 186 375 l 500 375 q 482 457 498 421 q 432 513 465 494 q 353 533 399 533 l 350 533 q 236 486 286 533 q 186 375 186 439 m 586 28 q 383 -20 481 -20 q 264 3 328 -20 q 121 122 174 37 q 69 302 69 206 q 78 378 69 342 q 176 545 102 481 q 347 608 250 608 q 431 597 393 608 q 614 306 604 544 l 178 306 q 219 167 184 222 q 304 85 254 112 q 408 58 355 58 q 502 82 460 58 q 555 147 543 106 l 586 147 l 586 28 m 469 839 q 513 811 496 833 q 530 764 530 790 q 525 736 530 753 q 497 702 515 713 q 458 692 479 692 q 404 712 427 692 q 380 766 380 732 q 403 818 380 798 q 456 839 425 839 l 469 839 m 281 839 q 323 811 307 833 q 339 764 339 790 q 334 736 339 745 q 307 703 326 714 q 267 692 289 692 q 214 712 236 692 q 192 766 192 732 q 214 819 192 798 q 267 839 235 839 l 281 839 z "},"¹":{"ha":895,"x_min":0,"x_max":861,"o":"m 0 0 l 83 0 l 83 39 q 118 54 109 44 q 127 89 127 64 l 127 794 q 118 830 127 819 q 83 844 108 840 l 83 880 l 244 880 l 730 456 l 730 794 q 721 831 730 821 q 686 844 712 840 l 686 880 l 861 880 l 861 844 q 825 831 834 840 q 817 794 817 822 l 817 89 q 826 53 817 62 q 861 39 835 44 l 861 0 l 686 0 l 686 39 q 722 53 713 44 q 730 89 730 62 l 730 302 l 214 753 l 214 89 q 224 54 214 64 q 258 39 234 44 l 258 0 l 0 0 z "},"º":{"ha":686,"x_min":92,"x_max":647,"o":"m 314 14 q 200 83 251 37 q 121 190 150 129 q 92 317 92 250 q 100 378 92 348 q 157 496 115 444 q 259 576 199 547 q 386 606 320 605 l 395 606 q 647 505 531 606 l 553 403 l 528 425 q 539 464 539 443 q 469 522 539 500 q 406 530 441 530 q 293 497 344 530 q 220 403 243 463 q 211 375 215 392 l 447 375 l 447 306 l 205 306 q 250 175 208 231 q 351 88 291 118 q 467 58 410 58 q 530 73 504 58 q 564 117 555 88 l 595 117 l 595 -3 q 475 -17 526 -17 q 314 14 385 -17 z "},"»":{"ha":467,"x_min":122,"x_max":433,"o":"m 330 472 l 433 306 l 330 134 l 275 134 l 339 306 l 275 472 l 330 472 m 122 472 l 180 472 l 286 306 l 180 134 l 122 134 l 189 306 l 122 472 z "},"¼":{"ha":783,"x_min":150,"x_max":745,"o":"m 150 600 l 200 653 l 444 422 l 669 661 l 722 614 l 497 372 l 745 142 l 694 89 l 447 319 l 222 78 l 170 127 l 395 370 l 150 600 z "},"½":{"ha":1072,"x_min":39,"x_max":1039,"o":"m 464 667 l 464 533 l 697 533 q 808 516 749 533 q 918 467 866 499 q 1004 381 970 434 q 1039 261 1039 328 q 974 95 1039 153 q 820 18 909 37 q 636 0 731 0 l 306 0 l 306 39 q 337 51 328 41 q 347 83 347 61 l 347 667 l 158 667 q 97 653 117 667 q 75 600 77 640 l 39 600 l 39 747 l 347 747 l 347 798 q 338 830 347 820 q 306 844 328 840 l 306 880 l 509 880 l 509 844 q 474 830 484 840 q 464 794 464 820 l 464 747 l 781 747 l 781 600 l 745 600 q 721 653 741 640 q 661 667 702 667 l 464 667 m 464 83 l 667 83 q 844 126 772 83 q 917 267 917 169 q 885 370 917 327 q 801 433 852 412 q 686 453 749 453 l 464 453 l 464 83 z "},"¾":{"ha":631,"x_min":41,"x_max":600,"o":"m 119 514 l 41 514 l 41 591 l 119 591 l 119 750 l 225 775 l 225 591 l 361 591 l 361 514 l 225 514 l 225 361 l 395 361 q 488 338 440 361 q 568 277 536 316 q 600 192 600 238 q 528 48 600 96 q 358 0 455 0 l 75 0 l 75 33 q 109 48 98 35 q 119 92 119 60 l 119 514 m 225 292 l 225 72 l 367 72 q 469 104 426 72 q 511 186 511 136 q 358 292 511 292 l 225 292 z "},"¿":{"ha":425,"x_min":47,"x_max":386,"o":"m 328 839 q 369 811 353 833 q 386 764 386 790 q 380 736 386 745 q 354 703 372 713 q 314 692 335 692 q 261 712 283 692 q 239 766 239 733 q 249 804 239 787 q 275 829 258 820 q 311 839 291 839 l 328 839 m 136 839 q 180 811 163 833 q 197 764 197 790 q 192 736 197 753 q 122 692 172 692 q 70 712 93 692 q 47 766 47 733 q 70 818 47 798 q 122 839 92 839 l 136 839 m 334 33 l 334 0 l 125 0 l 125 33 q 162 45 151 35 q 172 83 172 56 l 172 509 q 162 545 172 535 q 125 558 151 554 l 125 591 l 283 591 l 283 83 q 294 45 283 56 q 334 33 305 35 z "},"À":{"ha":852,"x_min":20,"x_max":822,"o":"m 286 436 l 528 436 l 403 745 l 286 436 m 180 0 l 20 0 l 20 39 q 61 92 46 45 l 380 880 l 461 880 l 789 78 q 797 60 793 69 q 807 45 801 51 q 822 39 812 39 l 822 0 l 642 0 l 642 39 q 675 61 675 44 q 673 68 675 64 q 672 75 672 73 l 561 355 l 253 355 l 147 83 q 146 75 147 81 q 144 69 144 70 q 180 39 144 44 l 180 0 z "},"Á":{"ha":839,"x_min":83,"x_max":811,"o":"m 241 800 l 241 533 l 478 533 q 586 517 528 533 q 695 467 644 500 q 779 383 746 434 q 811 264 811 332 q 703 58 811 116 q 416 0 594 0 l 83 0 l 83 39 q 117 51 107 41 q 127 83 127 61 l 127 798 q 118 830 127 820 q 83 844 108 840 l 83 880 l 717 880 l 717 722 l 684 722 q 657 782 680 764 q 591 800 635 800 l 241 800 m 447 83 q 627 120 557 83 q 697 250 697 156 q 665 357 697 310 q 578 429 632 404 q 464 453 524 453 l 241 453 l 241 83 l 447 83 z "},"Â":{"ha":852,"x_min":83,"x_max":819,"o":"m 416 0 l 83 0 l 83 39 q 117 51 107 41 q 127 83 127 61 l 127 798 q 118 830 127 820 q 83 844 108 840 l 83 880 l 458 880 q 563 868 511 880 q 657 830 614 855 q 726 764 699 804 q 753 669 753 724 q 716 565 753 610 q 616 494 680 521 q 706 458 661 484 q 785 383 751 433 q 819 258 819 334 q 765 108 819 166 q 621 25 711 50 q 416 0 531 0 m 464 453 l 241 453 l 241 83 l 447 83 q 625 126 553 83 q 697 267 697 169 q 630 405 697 357 q 464 453 562 453 m 478 533 q 554 550 517 533 q 615 597 592 567 q 639 667 639 627 q 617 742 639 711 q 560 786 596 772 q 475 800 524 800 l 241 800 l 241 533 l 478 533 z "},"Ã":{"ha":714,"x_min":0,"x_max":686,"o":"m 0 0 l 92 0 l 92 39 q 127 53 118 44 q 136 89 136 62 l 136 794 q 127 831 136 821 q 92 844 117 840 l 92 880 l 686 880 l 686 722 l 650 722 q 626 783 648 765 q 558 800 604 800 l 250 800 l 250 89 q 260 54 250 64 q 294 39 269 44 l 294 0 l 0 0 z "},"Ä":{"ha":920,"x_min":20,"x_max":884,"o":"m 761 0 l 139 0 q 78 -15 98 0 q 53 -69 57 -29 l 20 -69 l 20 86 l 83 86 l 406 880 l 486 880 l 814 86 l 884 86 l 884 -69 l 850 -69 q 824 -15 846 -29 q 761 0 802 0 m 692 86 l 431 745 l 178 86 l 692 86 z "},"Å":{"ha":798,"x_min":0,"x_max":766,"o":"m 0 0 l 81 0 l 81 39 q 117 54 107 44 q 127 89 127 64 l 127 794 q 117 830 127 819 q 81 844 106 840 l 81 880 l 733 880 l 733 733 l 700 733 q 672 788 696 775 q 606 800 649 800 l 241 800 l 241 539 l 555 539 q 619 583 612 539 l 653 583 l 653 414 l 619 414 q 555 458 612 458 l 241 458 l 241 86 l 642 86 q 707 104 685 86 q 730 164 728 121 l 766 164 l 766 0 l 0 0 z "},"Æ":{"ha":1320,"x_min":45,"x_max":1286,"o":"m 847 533 l 722 428 l 722 89 q 766 39 722 43 l 766 0 l 564 0 l 564 39 q 598 51 589 41 q 608 83 608 61 l 608 428 l 484 533 l 225 75 q 219 64 222 68 q 216 58 216 60 q 228 44 216 49 q 256 39 240 39 l 256 0 l 45 0 l 45 39 q 100 81 76 47 l 397 608 l 155 819 q 125 837 141 833 q 83 844 109 842 l 83 880 l 328 880 l 328 844 q 301 840 317 844 q 286 828 286 836 q 294 814 286 822 l 608 536 l 608 798 q 599 830 608 821 q 564 844 589 840 l 564 880 l 766 880 l 766 844 q 732 829 742 840 q 722 794 722 819 l 722 536 l 1036 814 q 1044 828 1044 822 q 1030 840 1044 836 q 1003 844 1016 844 l 1003 880 l 1247 880 l 1247 844 q 1206 837 1221 842 q 1178 819 1191 833 l 933 608 l 1234 81 q 1286 39 1252 47 l 1286 0 l 1075 0 l 1075 39 q 1100 44 1090 39 q 1111 58 1111 49 q 1108 75 1111 69 l 847 533 z "},"Ç":{"ha":798,"x_min":75,"x_max":766,"o":"m 350 -17 l 278 -17 q 111 -8 201 -17 l 111 153 l 147 153 q 175 96 152 115 q 235 72 198 77 q 330 66 271 66 q 497 94 422 66 q 615 173 572 121 q 659 294 659 224 q 631 382 659 345 q 558 439 603 419 q 458 458 513 458 l 378 458 l 378 539 l 439 539 q 525 560 488 539 q 583 616 563 581 q 603 692 603 650 q 549 795 603 765 q 419 825 496 825 q 323 810 374 825 q 239 771 272 795 q 205 717 205 746 q 216 686 205 708 l 189 659 l 75 770 q 155 827 110 800 q 268 876 199 854 q 422 897 337 897 q 570 870 503 897 q 674 800 637 844 q 711 708 711 757 q 681 594 711 646 q 586 514 650 542 q 708 439 650 497 q 766 286 766 382 q 733 164 766 220 q 643 67 701 108 q 509 5 585 27 q 350 -17 434 -17 z "},"È":{"ha":920,"x_min":83,"x_max":889,"o":"m 241 89 q 246 62 241 73 q 260 47 250 52 q 286 39 270 42 l 286 0 l 83 0 l 83 39 q 118 54 109 44 q 127 89 127 64 l 127 794 q 118 830 127 820 q 83 844 109 840 l 83 880 l 286 880 l 286 844 q 251 830 260 840 q 241 794 241 820 l 241 309 l 730 730 l 730 794 q 719 831 728 821 q 684 844 709 840 l 684 880 l 889 880 l 889 844 q 851 831 861 840 q 842 794 842 821 l 842 89 q 852 54 842 64 q 889 39 863 44 l 889 0 l 684 0 l 684 39 q 720 54 710 44 q 730 89 730 64 l 730 611 l 241 192 l 241 89 z "},"É":{"ha":920,"x_min":83,"x_max":889,"o":"m 345 911 l 392 1017 l 425 1011 q 445 968 425 986 q 492 950 465 950 q 519 958 495 950 q 595 1036 570 978 l 647 1014 q 623 962 640 988 q 583 920 606 936 q 458 878 528 878 q 345 911 404 878 m 241 89 q 246 62 241 73 q 260 47 250 52 q 286 39 270 42 l 286 0 l 83 0 l 83 39 q 118 54 109 44 q 127 89 127 64 l 127 794 q 118 830 127 820 q 83 844 109 840 l 83 880 l 286 880 l 286 844 q 251 830 260 840 q 241 794 241 820 l 241 309 l 730 730 l 730 794 q 719 831 728 821 q 684 844 709 840 l 684 880 l 889 880 l 889 844 q 851 831 861 840 q 842 794 842 821 l 842 89 q 852 54 842 64 q 889 39 863 44 l 889 0 l 684 0 l 684 39 q 720 54 710 44 q 730 89 730 64 l 730 611 l 241 192 l 241 89 z "},"Ê":{"ha":880,"x_min":0,"x_max":847,"o":"m 0 0 l 83 0 l 83 39 q 119 53 110 44 q 127 89 127 62 l 127 794 q 118 830 127 819 q 83 844 108 840 l 83 880 l 286 880 l 286 844 q 251 830 260 840 q 241 794 241 820 l 241 505 l 597 814 q 606 828 606 822 q 591 840 606 836 q 564 844 577 844 l 564 880 l 808 880 l 808 844 q 767 837 783 842 q 739 819 752 833 l 494 608 l 794 81 q 847 39 814 47 l 847 0 l 636 0 l 636 39 q 663 44 652 39 q 675 58 675 50 q 669 75 675 63 l 408 533 l 241 389 l 241 89 q 286 39 241 43 l 286 0 l 0 0 z "},"Ë":{"ha":852,"x_min":20,"x_max":822,"o":"m 147 83 q 146 75 147 81 q 144 69 144 70 q 180 39 144 44 l 180 0 l 20 0 l 20 39 q 61 92 46 45 l 380 880 l 461 880 l 789 78 q 797 60 793 69 q 807 45 801 51 q 822 39 812 39 l 822 0 l 642 0 l 642 39 q 675 61 675 44 q 673 68 675 64 q 672 75 672 73 l 403 745 l 147 83 z "},"Ì":{"ha":1031,"x_min":22,"x_max":991,"o":"m 189 0 l 22 0 l 22 39 q 64 81 60 49 l 195 803 l 195 811 q 164 844 195 840 l 164 880 l 311 880 l 514 380 l 705 880 l 859 880 l 859 844 q 825 808 825 841 q 827 800 825 806 q 828 789 828 794 l 950 81 q 963 52 954 60 q 991 39 971 44 l 991 0 l 803 0 l 803 39 q 839 69 839 43 l 839 81 l 728 722 l 530 205 l 475 205 l 269 717 l 153 81 l 153 69 q 189 39 153 39 l 189 0 z "},"Í":{"ha":920,"x_min":83,"x_max":889,"o":"m 241 89 q 246 62 241 73 q 260 47 250 52 q 286 39 270 42 l 286 0 l 83 0 l 83 39 q 118 54 109 44 q 127 89 127 64 l 127 794 q 118 830 127 820 q 83 844 109 840 l 83 880 l 286 880 l 286 844 q 251 830 260 840 q 241 794 241 820 l 241 536 l 730 536 l 730 794 q 719 831 728 821 q 684 844 709 840 l 684 880 l 889 880 l 889 844 q 851 831 861 840 q 842 794 842 821 l 842 89 q 852 54 842 64 q 889 39 863 44 l 889 0 l 684 0 l 684 39 q 720 54 710 44 q 730 89 730 64 l 730 456 l 241 456 l 241 89 z "},"Î":{"ha":1003,"x_min":72,"x_max":966,"o":"m 72 439 q 109 637 72 549 q 210 783 146 725 q 353 871 274 842 q 519 900 432 900 q 685 871 606 900 q 828 783 764 842 q 929 636 892 724 q 966 439 966 549 q 935 255 966 340 q 843 108 903 171 q 701 12 783 45 q 519 -22 618 -22 q 287 37 390 -22 q 128 201 184 96 q 72 439 72 307 m 514 817 q 344 767 416 817 q 235 630 272 717 q 197 439 197 543 q 217 295 197 364 q 277 173 237 226 q 379 91 317 121 q 519 61 441 61 q 660 91 600 61 q 761 172 721 120 q 822 292 802 224 q 842 439 842 359 q 809 615 842 529 q 703 759 777 701 q 514 817 630 817 z "},"Ï":{"ha":920,"x_min":83,"x_max":889,"o":"m 241 89 q 246 62 241 73 q 260 47 250 52 q 286 39 270 42 l 286 0 l 83 0 l 83 39 q 118 54 109 44 q 127 89 127 64 l 127 794 q 118 830 127 820 q 83 844 109 840 l 83 880 l 889 880 l 889 844 q 851 831 861 840 q 842 794 842 821 l 842 89 q 852 54 842 64 q 889 39 863 44 l 889 0 l 684 0 l 684 39 q 720 54 710 44 q 730 89 730 64 l 730 800 l 241 800 l 241 89 z "},"Ð":{"ha":742,"x_min":83,"x_max":714,"o":"m 241 361 q 332 396 294 381 q 411 430 371 411 q 487 472 451 448 q 553 528 524 496 q 584 580 574 551 q 595 642 595 609 q 583 703 595 680 q 533 766 570 742 q 453 798 497 791 q 325 803 369 803 l 241 803 l 241 361 m 286 0 l 83 0 l 83 39 q 118 54 109 44 q 127 89 127 64 l 127 794 q 118 830 127 820 q 83 844 109 840 l 83 880 l 406 880 q 500 876 458 880 q 581 856 543 871 q 669 786 633 833 q 714 681 706 738 l 714 647 q 667 507 714 568 q 552 404 620 445 q 386 325 484 363 q 241 269 288 287 l 241 89 q 246 62 241 73 q 260 47 250 52 q 286 39 270 42 l 286 0 z "},"Ñ":{"ha":880,"x_min":75,"x_max":844,"o":"m 800 -8 q 623 -20 682 -20 q 514 -12 564 -20 q 414 17 465 -3 q 170 201 265 72 q 75 486 75 330 q 98 624 75 559 q 162 741 121 689 q 263 830 204 793 q 392 884 322 867 q 525 897 461 897 q 692 869 617 897 q 844 770 769 836 l 730 659 l 703 686 q 714 720 714 709 q 687 767 714 745 q 615 803 660 790 q 519 817 571 817 q 405 798 463 817 q 302 741 348 779 q 227 641 256 703 q 197 494 198 578 q 238 314 197 395 q 345 177 279 233 q 485 92 410 121 q 623 64 559 64 q 719 87 680 64 q 764 153 758 110 l 800 153 l 800 -8 z "},"Ò":{"ha":811,"x_min":39,"x_max":781,"o":"m 300 0 l 300 39 q 331 44 320 40 q 346 58 341 48 q 350 89 350 68 l 350 800 l 158 800 q 97 787 117 800 q 75 733 77 773 l 39 733 l 39 880 l 781 880 l 781 733 l 745 733 q 722 787 741 773 q 661 800 703 800 l 467 800 l 467 89 q 477 51 467 61 q 517 39 488 41 l 517 0 l 300 0 z "},"Ó":{"ha":852,"x_min":33,"x_max":817,"o":"m 283 97 q 320 112 306 97 q 358 167 335 126 l 383 220 l 106 803 q 77 831 98 820 q 33 844 55 842 l 33 880 l 272 880 l 272 844 q 231 817 231 838 q 232 810 231 814 q 233 803 233 806 l 439 342 l 636 781 q 637 786 636 782 q 639 791 639 790 q 617 828 639 811 q 575 844 595 844 l 575 880 l 817 880 l 817 844 q 730 798 747 833 l 428 131 q 365 30 397 65 q 289 -5 332 -5 q 238 1 265 -5 q 192 20 210 8 l 183 114 l 214 127 q 283 97 245 97 z "},"Ô":{"ha":989,"x_min":66,"x_max":958,"o":"m 614 0 l 411 0 l 411 39 q 458 97 458 47 q 292 132 366 97 q 168 226 219 168 q 92 350 117 285 q 66 478 66 415 q 102 630 66 562 q 225 740 138 699 q 458 781 313 781 q 446 823 458 806 q 411 844 434 840 l 411 880 l 614 880 l 614 844 q 579 823 591 840 q 567 781 567 806 q 800 740 712 781 q 923 630 887 699 q 958 478 958 562 q 933 349 958 415 q 857 225 907 283 q 733 132 807 168 q 567 97 660 97 q 577 57 567 70 q 614 39 588 44 l 614 0 m 859 475 q 837 581 859 537 q 776 649 815 624 q 686 684 737 673 q 570 694 635 694 l 570 183 q 702 218 634 183 q 814 319 769 252 q 859 475 859 385 m 167 475 q 212 319 167 385 q 323 218 256 252 q 456 183 391 183 l 456 694 q 305 674 370 694 q 204 605 241 654 q 167 475 167 556 z "},"Õ":{"ha":852,"x_min":22,"x_max":825,"o":"m 239 0 l 22 0 l 22 39 q 97 89 67 43 l 358 467 l 119 811 q 61 844 104 840 l 61 880 l 302 880 l 302 844 q 258 817 258 838 q 262 809 258 815 q 267 800 266 802 l 436 553 l 606 798 q 611 817 611 814 q 600 837 611 829 q 572 844 589 844 l 572 880 l 781 880 l 781 844 q 741 830 756 840 q 711 798 726 819 l 489 478 l 755 89 q 792 48 781 58 q 825 39 803 39 l 825 0 l 583 0 l 583 39 q 628 64 628 47 q 623 78 628 73 l 408 389 l 205 86 q 197 64 197 74 q 239 39 197 39 l 239 0 z "},"Ö":{"ha":975,"x_min":83,"x_max":945,"o":"m 822 0 l 83 0 l 83 39 q 118 54 109 44 q 127 89 127 64 l 127 794 q 118 830 127 820 q 83 844 109 840 l 83 880 l 286 880 l 286 844 q 251 830 260 840 q 241 794 241 820 l 241 86 l 730 86 l 730 794 q 719 831 728 821 q 684 844 709 840 l 684 880 l 889 880 l 889 844 q 851 831 861 840 q 842 794 842 821 l 842 86 l 945 86 l 945 -69 l 908 -69 q 885 -15 906 -29 q 822 0 863 0 z "},"×":{"ha":880,"x_min":83,"x_max":844,"o":"m 686 536 l 686 794 q 677 831 686 821 q 642 844 667 840 l 642 880 l 844 880 l 844 844 q 809 831 818 840 q 800 794 800 821 l 800 89 q 804 62 800 73 q 818 47 808 52 q 844 39 828 42 l 844 0 l 642 0 l 642 39 q 668 47 658 41 q 682 62 677 52 q 686 89 686 73 l 686 456 q 588 396 628 418 q 502 361 549 375 q 397 347 455 347 q 273 366 334 347 q 170 433 212 384 q 127 567 127 483 l 127 794 q 118 830 127 820 q 83 844 109 840 l 83 880 l 286 880 l 286 844 q 251 830 260 840 q 241 794 241 820 l 241 555 q 288 466 241 498 q 406 433 335 433 q 496 444 455 433 q 576 474 538 455 q 686 536 614 494 z "},"Ø":{"ha":1141,"x_min":83,"x_max":1114,"o":"m 542 86 l 542 794 q 531 830 542 819 q 497 844 521 840 l 497 880 l 700 880 l 700 844 q 665 830 674 840 q 656 794 656 820 l 656 86 l 956 86 l 956 794 q 945 830 956 819 q 908 844 935 840 l 908 880 l 1114 880 l 1114 844 q 1079 830 1088 840 q 1069 794 1069 820 l 1069 89 q 1074 62 1069 73 q 1087 47 1078 52 q 1114 39 1097 42 l 1114 0 l 83 0 l 83 39 q 118 54 109 44 q 127 89 127 64 l 127 794 q 118 830 127 820 q 83 844 109 840 l 83 880 l 286 880 l 286 844 q 251 830 260 840 q 241 794 241 820 l 241 86 l 542 86 z "},"Ù":{"ha":1197,"x_min":83,"x_max":1169,"o":"m 1069 86 l 1169 86 l 1169 -69 l 1136 -69 q 1110 -15 1132 -29 q 1047 0 1088 0 l 83 0 l 83 39 q 118 54 109 44 q 127 89 127 64 l 127 794 q 118 830 127 820 q 83 844 109 840 l 83 880 l 286 880 l 286 844 q 251 830 260 840 q 241 794 241 820 l 241 86 l 542 86 l 542 794 q 531 830 542 819 q 497 844 521 840 l 497 880 l 700 880 l 700 844 q 665 830 674 840 q 656 794 656 820 l 656 86 l 956 86 l 956 794 q 945 830 956 819 q 908 844 935 840 l 908 880 l 1114 880 l 1114 844 q 1079 830 1088 840 q 1069 794 1069 820 l 1069 86 z "},"Ú":{"ha":1031,"x_min":39,"x_max":1000,"o":"m 309 800 l 158 800 q 97 787 117 800 q 75 733 77 773 l 39 733 l 39 880 l 467 880 l 467 844 q 432 830 441 840 q 422 794 422 820 l 422 533 l 656 533 q 768 519 709 533 q 879 476 826 506 q 966 398 932 447 q 1000 281 1000 349 q 960 141 1000 198 q 858 55 919 85 q 728 12 796 24 q 595 0 660 0 l 264 0 l 264 39 q 309 83 309 43 l 309 800 m 422 83 l 625 83 q 746 101 690 83 q 838 160 802 119 q 875 267 874 201 q 843 370 875 327 q 759 433 810 412 q 644 453 707 453 l 422 453 l 422 83 z "},"Û":{"ha":1086,"x_min":83,"x_max":1059,"o":"m 83 880 l 286 880 l 286 844 q 251 830 260 840 q 241 794 241 820 l 241 533 l 478 533 q 629 511 553 533 q 760 430 705 489 q 814 267 814 370 q 784 150 814 200 q 701 66 755 100 q 575 16 646 33 q 416 0 503 0 l 83 0 l 83 39 q 117 51 107 41 q 127 83 127 61 l 127 798 q 118 830 127 820 q 83 844 108 840 l 83 880 m 856 844 l 856 880 l 1059 880 l 1059 844 q 1023 831 1033 840 q 1014 794 1014 821 l 1014 89 q 1024 54 1014 64 q 1059 39 1034 44 l 1059 0 l 856 0 l 856 39 q 891 54 882 44 q 900 89 900 64 l 900 794 q 891 831 900 821 q 856 844 882 840 m 241 83 l 447 83 q 625 126 553 83 q 697 267 697 169 q 630 405 697 357 q 464 453 562 453 l 241 453 l 241 83 z "},"Ü":{"ha":852,"x_min":83,"x_max":814,"o":"m 83 880 l 286 880 l 286 844 q 251 830 260 840 q 241 794 241 820 l 241 533 l 478 533 q 629 511 553 533 q 760 430 705 489 q 814 267 814 370 q 784 150 814 200 q 701 66 755 100 q 575 16 646 33 q 416 0 503 0 l 83 0 l 83 39 q 117 51 107 41 q 127 83 127 61 l 127 798 q 118 830 127 820 q 83 844 108 840 l 83 880 m 241 83 l 447 83 q 625 126 553 83 q 697 267 697 169 q 630 405 697 357 q 464 453 562 453 l 241 453 l 241 83 z "},"Ý":{"ha":880,"x_min":75,"x_max":844,"o":"m 509 17 q 294 -20 420 -20 q 119 -8 243 -20 l 119 153 l 155 153 q 200 86 162 109 q 297 64 239 64 q 430 89 361 64 q 563 165 500 115 q 668 289 627 216 q 717 456 710 363 l 389 456 l 389 539 l 717 539 q 680 667 710 614 q 604 753 649 720 q 507 801 559 785 q 400 817 455 817 q 303 803 347 817 q 232 768 258 790 q 205 720 205 745 q 216 686 205 708 l 189 659 l 75 770 q 228 869 146 833 q 395 897 302 897 q 528 884 458 897 q 656 831 597 867 q 757 742 715 794 q 822 624 799 689 q 844 486 844 559 q 820 335 844 408 q 750 200 795 262 q 642 91 705 138 q 509 17 580 44 z "},"Þ":{"ha":1169,"x_min":83,"x_max":1133,"o":"m 728 61 q 853 91 799 61 q 943 172 907 120 q 997 292 979 224 q 1017 439 1015 360 q 992 604 1017 525 q 917 739 967 682 q 791 811 866 795 q 720 817 741 817 q 600 788 652 817 q 510 706 547 759 q 455 585 473 654 q 436 439 436 517 q 468 250 436 336 q 566 112 500 163 q 728 61 633 61 m 241 536 l 330 536 q 382 694 345 627 q 474 806 419 761 q 593 874 528 852 q 728 897 659 897 q 878 868 804 897 q 1008 781 951 839 q 1099 636 1065 723 q 1133 439 1133 550 q 1083 202 1133 307 q 940 37 1032 96 q 728 -22 847 -22 q 564 11 638 -22 q 435 108 490 45 q 351 256 380 172 q 322 439 322 340 l 322 456 l 241 456 l 241 89 q 246 62 241 73 q 260 47 250 52 q 286 39 270 42 l 286 0 l 83 0 l 83 39 q 118 54 109 44 q 127 89 127 64 l 127 794 q 118 830 127 820 q 83 844 109 840 l 83 880 l 286 880 l 286 844 q 251 830 260 840 q 241 794 241 820 l 241 536 z "},"ß":{"ha":783,"x_min":50,"x_max":755,"o":"m 755 0 l 553 0 l 553 39 q 579 47 569 41 q 593 62 589 52 q 597 89 597 73 l 597 400 l 486 400 l 197 0 l 50 0 l 50 39 q 114 72 94 50 l 358 406 q 223 441 283 414 q 129 519 163 468 q 94 650 94 570 q 120 755 94 703 q 209 844 146 807 q 372 880 271 880 l 755 880 l 755 844 q 721 829 731 840 q 711 794 711 819 l 711 89 q 721 54 711 64 q 755 39 730 44 l 755 0 m 441 478 l 597 478 l 597 800 l 411 800 q 310 785 356 800 q 236 735 264 770 q 208 642 208 701 q 274 511 208 544 q 441 478 340 478 z "},"à":{"ha":659,"x_min":66,"x_max":625,"o":"m 475 0 l 475 66 q 377 8 419 26 q 281 -11 335 -11 q 174 10 223 -11 q 96 73 125 31 q 66 172 66 114 q 88 260 66 216 q 147 334 110 304 q 287 399 208 380 q 475 428 367 417 q 430 511 471 485 q 328 536 389 536 q 158 447 203 536 l 127 447 l 127 555 q 339 608 230 608 q 464 581 409 608 q 550 504 519 553 q 581 392 581 454 l 581 81 q 591 46 581 56 q 625 33 602 35 l 625 0 l 475 0 m 475 172 l 475 355 q 339 332 391 344 q 241 289 288 319 q 196 241 214 273 q 178 178 178 210 q 218 99 178 123 q 297 75 258 75 q 475 172 400 75 z "},"á":{"ha":714,"x_min":61,"x_max":677,"o":"m 61 289 q 71 470 61 390 q 102 611 80 549 q 162 717 123 673 q 256 786 200 761 q 314 802 286 799 q 399 807 342 805 q 484 817 455 810 q 512 827 498 820 q 528 839 526 835 l 558 839 l 558 742 q 469 730 511 730 q 440 732 460 730 q 408 733 420 733 q 292 717 335 733 q 204 644 232 690 q 175 519 177 598 q 270 591 217 566 q 375 616 323 616 q 528 573 458 616 q 638 455 598 529 q 677 294 677 381 q 636 136 677 212 q 524 15 595 60 q 370 -31 453 -31 q 250 -5 306 -31 q 151 66 194 21 q 85 170 109 112 q 61 289 61 229 m 367 545 q 222 473 272 545 q 172 294 172 401 q 219 116 172 190 q 364 41 266 41 q 478 77 431 41 q 546 170 524 113 q 567 294 567 227 q 543 409 567 351 q 474 506 519 467 q 367 545 429 545 z "},"â":{"ha":717,"x_min":69,"x_max":636,"o":"m 378 591 q 523 559 467 591 q 578 458 578 527 q 484 336 578 370 q 590 293 546 330 q 636 189 634 257 q 618 123 636 156 q 567 62 600 90 q 490 17 534 34 q 397 0 446 0 l 75 0 l 75 33 q 109 48 98 35 q 119 92 119 60 l 119 505 q 110 544 119 531 q 69 558 100 556 l 69 591 l 378 591 m 378 72 q 441 85 408 72 q 497 124 475 98 q 519 186 519 151 q 479 263 519 233 q 361 294 438 294 l 225 294 l 225 72 l 378 72 m 364 364 q 437 386 411 364 q 464 444 464 407 q 380 517 464 517 l 225 517 l 225 364 l 364 364 z "},"ã":{"ha":536,"x_min":69,"x_max":500,"o":"m 119 505 q 110 544 119 534 q 69 558 100 554 l 69 591 l 500 591 l 500 472 l 475 472 q 454 510 471 500 q 400 519 437 519 l 225 519 l 225 83 q 234 47 225 57 q 269 33 243 37 l 269 0 l 75 0 l 75 33 q 110 46 100 35 q 119 83 119 57 l 119 505 z "},"ä":{"ha":686,"x_min":53,"x_max":656,"o":"m 106 75 l 309 591 l 389 591 l 589 75 l 656 75 l 656 -69 l 623 -69 q 536 0 610 0 l 172 0 q 86 -69 98 0 l 53 -69 l 53 75 l 106 75 m 478 75 l 336 447 l 192 75 l 478 75 z "},"å":{"ha":644,"x_min":69,"x_max":614,"o":"m 186 375 l 500 375 q 459 490 498 447 q 350 533 421 533 q 236 486 286 533 q 186 375 186 439 m 586 28 q 383 -20 481 -20 q 264 3 328 -20 q 121 122 174 37 q 69 302 69 206 q 78 378 69 342 q 131 499 94 447 q 223 579 168 551 q 347 608 278 608 q 497 562 439 608 q 583 448 556 515 q 614 306 610 380 l 178 306 q 219 167 184 222 q 304 85 254 112 q 408 58 355 58 q 502 82 460 58 q 555 147 543 106 l 586 147 l 586 28 z "},"æ":{"ha":1059,"x_min":25,"x_max":1019,"o":"m 469 503 q 460 543 469 532 q 422 558 452 554 l 422 591 l 616 591 l 616 558 q 583 545 591 554 q 575 511 575 536 l 575 336 l 803 525 q 811 536 811 529 q 797 551 811 544 q 772 558 782 558 l 772 591 l 989 591 l 989 558 l 986 558 q 968 555 976 558 q 953 546 960 551 q 939 536 946 541 l 745 386 l 964 72 q 1019 33 983 42 l 1019 0 l 803 0 l 803 33 q 830 39 817 33 q 844 56 844 44 q 839 66 844 61 l 669 325 l 575 253 l 575 83 q 583 47 575 57 q 616 33 591 37 l 616 0 l 425 0 l 425 33 q 460 46 451 35 q 469 83 469 56 l 469 253 l 375 325 l 205 66 q 200 56 200 61 q 214 39 200 44 q 241 33 228 33 l 241 0 l 25 0 l 25 33 q 81 72 60 41 l 300 386 l 106 536 q 79 554 86 549 q 58 558 71 558 l 56 558 l 56 591 l 272 591 l 272 558 q 248 551 263 558 q 233 536 233 544 q 241 525 233 533 l 469 336 l 469 503 z "},"ç":{"ha":591,"x_min":66,"x_max":561,"o":"m 297 608 q 468 569 402 608 q 533 464 533 530 q 510 385 533 420 q 450 334 486 350 q 531 285 501 321 q 561 197 561 249 q 520 87 561 137 q 415 9 479 37 q 283 -20 351 -20 q 94 28 201 -20 l 94 147 l 125 147 q 169 82 125 106 q 283 58 213 58 q 369 75 330 58 q 434 122 409 92 q 458 192 458 152 q 426 266 458 245 q 353 286 393 286 l 297 286 l 297 358 l 339 358 q 401 388 370 358 q 433 456 433 418 q 396 522 433 501 q 300 542 359 542 q 189 516 237 542 q 142 453 142 490 q 143 444 142 450 q 144 433 144 437 l 114 419 l 66 539 q 297 608 161 608 z "},"è":{"ha":714,"x_min":61,"x_max":681,"o":"m 631 591 l 631 86 q 641 46 631 57 q 681 33 652 35 l 681 0 l 525 0 l 525 64 q 325 -17 420 -17 q 267 -11 311 -17 q 145 65 184 7 q 106 211 106 124 l 106 509 q 96 545 106 535 q 61 558 87 554 l 61 591 l 211 591 l 211 236 q 225 136 211 175 q 286 78 239 98 q 347 64 318 64 q 525 155 427 64 l 525 509 q 516 545 525 535 q 481 558 507 554 l 481 591 l 631 591 z "},"é":{"ha":714,"x_min":61,"x_max":681,"o":"m 631 591 l 631 86 q 641 46 631 57 q 681 33 652 35 l 681 0 l 525 0 l 525 64 q 325 -17 420 -17 q 267 -11 311 -17 q 145 65 184 7 q 106 211 106 124 l 106 509 q 96 545 106 535 q 61 558 87 554 l 61 591 l 211 591 l 211 236 q 225 136 211 175 q 286 78 239 98 q 347 64 318 64 q 525 155 427 64 l 525 509 q 516 545 525 535 q 481 558 507 554 l 481 591 l 631 591 m 214 733 l 261 839 l 294 833 q 314 790 294 808 q 361 772 334 772 q 421 800 392 772 q 464 859 451 828 l 519 839 q 492 784 510 811 q 456 742 475 756 q 328 700 395 700 q 214 733 274 700 z "},"ê":{"ha":700,"x_min":69,"x_max":667,"o":"m 222 511 l 222 336 l 450 525 q 458 536 458 529 q 444 551 458 544 q 419 558 429 558 l 419 591 l 636 591 l 636 558 l 633 558 q 615 555 623 558 q 601 546 608 551 q 586 536 593 541 l 392 386 l 611 72 q 667 33 631 42 l 667 0 l 450 0 l 450 33 q 478 39 464 33 q 492 56 492 44 q 486 66 492 61 l 317 325 l 222 253 l 222 83 q 230 47 222 57 q 264 33 238 37 l 264 0 l 72 0 l 72 33 q 107 46 97 35 q 117 83 117 57 l 117 503 q 108 543 117 532 q 69 558 99 554 l 69 591 l 264 591 l 264 558 q 230 545 238 554 q 222 511 222 536 z "},"ë":{"ha":659,"x_min":47,"x_max":623,"o":"m 294 591 l 375 591 l 575 78 q 592 46 582 57 q 623 33 603 35 l 623 0 l 439 0 l 439 33 l 441 33 q 462 39 454 33 q 469 53 469 44 q 467 69 469 64 l 322 447 l 180 81 q 175 61 175 70 q 189 41 175 50 q 220 33 202 33 l 220 0 l 47 0 l 47 33 q 76 43 67 33 q 92 75 84 53 l 294 591 z "},"ì":{"ha":895,"x_min":22,"x_max":864,"o":"m 158 86 q 157 77 158 83 q 155 69 155 70 q 192 33 155 37 l 192 0 l 22 0 l 22 33 q 55 45 47 35 q 69 83 62 54 l 178 539 l 178 542 q 150 564 178 564 l 150 589 l 286 591 l 450 253 l 608 591 l 747 589 l 747 564 q 725 557 733 564 q 717 539 717 550 q 720 528 720 539 l 817 83 q 832 45 825 54 q 864 33 840 35 l 864 0 l 684 0 l 684 31 q 714 53 714 35 q 713 62 714 55 q 711 75 711 70 l 631 475 l 458 100 l 411 100 l 239 456 l 158 86 z "},"í":{"ha":728,"x_min":69,"x_max":689,"o":"m 642 83 q 646 54 642 65 q 661 39 650 43 q 689 33 673 34 l 689 0 l 494 0 l 494 33 q 529 48 518 37 q 539 83 539 59 l 539 272 l 225 272 l 225 83 q 234 47 225 57 q 269 33 243 37 l 269 0 l 75 0 l 75 33 q 110 46 100 35 q 119 83 119 57 l 119 505 q 110 544 119 534 q 69 558 100 554 l 69 591 l 269 591 l 269 558 q 234 545 243 554 q 225 509 225 535 l 225 345 l 539 345 l 539 509 q 529 544 539 533 q 494 558 518 554 l 494 591 l 689 591 l 689 558 q 659 551 667 555 q 646 537 650 547 q 642 509 642 527 l 642 83 z "},"î":{"ha":714,"x_min":66,"x_max":686,"o":"m 686 294 q 645 136 686 212 q 531 15 603 61 q 375 -31 459 -31 q 221 16 292 -31 q 108 137 149 62 q 66 294 66 212 q 90 415 66 358 q 155 517 113 472 q 254 588 197 562 q 372 614 311 614 q 529 571 458 614 q 644 454 601 528 q 686 294 686 380 m 375 545 q 230 473 280 545 q 180 294 180 401 q 227 115 180 189 q 372 41 273 41 q 523 116 471 41 q 575 294 575 191 q 553 409 575 351 q 486 506 531 467 q 375 545 440 545 z "},"ï":{"ha":728,"x_min":69,"x_max":689,"o":"m 75 0 l 75 33 q 110 46 100 35 q 119 83 119 57 l 119 505 q 110 544 119 534 q 69 558 100 554 l 69 591 l 225 591 l 225 525 q 428 608 322 608 q 539 581 488 608 q 642 378 642 531 l 642 83 q 646 54 642 65 q 661 39 650 43 q 689 33 673 34 l 689 0 l 494 0 l 494 33 q 529 48 518 37 q 539 83 539 59 l 539 339 q 508 472 539 418 q 403 525 477 525 q 311 503 350 525 q 225 436 272 480 l 225 83 q 234 47 225 57 q 269 33 243 37 l 269 0 l 75 0 z "},"ð":{"ha":700,"x_min":61,"x_max":672,"o":"m 64 -278 l 64 -244 q 101 -231 92 -240 q 111 -195 111 -221 l 111 503 q 101 544 111 534 q 61 558 91 554 l 61 589 l 214 589 l 214 528 q 311 587 267 568 q 411 606 355 606 l 447 606 q 565 559 513 597 q 644 461 616 520 q 672 334 672 401 q 653 219 672 273 q 598 122 635 165 q 511 47 562 78 q 406 10 464 20 q 272 0 347 0 l 214 0 l 214 -195 q 223 -231 214 -221 q 261 -244 233 -240 l 261 -278 l 64 -278 m 214 439 l 214 75 q 251 74 231 75 q 281 72 271 72 q 444 111 378 72 q 531 201 501 144 q 561 325 561 258 q 529 445 561 389 q 439 519 497 500 q 386 528 410 528 q 301 504 342 528 q 214 439 260 481 z "},"ñ":{"ha":659,"x_min":75,"x_max":631,"o":"m 578 -3 q 458 -17 510 -17 q 297 14 368 -17 q 138 134 201 50 q 75 317 75 217 q 83 378 75 348 q 122 471 96 429 q 187 543 149 513 q 271 589 225 573 q 370 606 317 606 q 631 505 513 606 l 539 403 l 511 425 q 525 464 525 448 q 456 522 525 498 q 389 530 422 530 q 264 488 318 530 q 195 375 210 446 q 190 346 193 363 q 186 314 186 328 q 228 179 186 237 q 333 89 271 120 q 450 58 395 58 q 513 73 487 58 q 547 117 539 87 l 578 117 l 578 -3 z "},"ò":{"ha":1114,"x_min":69,"x_max":1086,"o":"m 75 0 l 75 33 q 110 46 100 35 q 119 83 119 57 l 119 505 q 110 544 119 534 q 69 558 100 554 l 69 591 l 222 591 l 225 525 q 416 606 319 606 q 608 503 543 606 q 825 606 710 606 q 903 595 869 606 q 1003 529 964 581 q 1042 411 1042 477 l 1042 83 q 1052 46 1042 57 q 1086 33 1063 35 l 1086 0 l 892 0 l 892 33 q 928 47 920 37 q 936 83 936 56 l 936 383 q 928 452 936 425 q 892 500 920 479 q 806 525 848 525 q 750 514 780 525 q 697 486 721 504 q 655 449 677 474 q 633 406 633 423 l 633 83 q 643 47 633 58 q 675 33 652 35 l 675 0 l 484 0 l 484 33 q 516 46 508 35 q 525 83 525 58 l 525 383 q 509 456 525 424 q 463 507 492 489 q 392 525 433 525 q 225 439 315 525 l 225 83 q 234 47 225 58 q 267 33 243 35 l 267 0 l 75 0 z "},"ó":{"ha":644,"x_min":20,"x_max":606,"o":"m 339 -81 q 244 -225 304 -173 q 103 -278 184 -278 q 36 -269 72 -278 l 36 -150 l 69 -150 q 122 -197 78 -197 q 189 -172 160 -197 q 243 -104 214 -154 q 272 -20 272 -54 q 267 5 272 -11 l 64 514 q 46 546 54 536 q 20 558 37 556 l 20 591 l 203 591 l 203 558 q 172 536 172 553 q 178 522 172 528 l 334 122 l 475 511 q 478 525 478 517 q 444 558 478 553 l 444 591 l 606 591 l 606 558 q 564 517 577 551 l 339 -81 z "},"ô":{"ha":989,"x_min":69,"x_max":953,"o":"m 458 0 q 230 47 317 0 q 106 168 142 94 q 69 328 69 241 q 89 440 69 388 q 142 529 108 493 q 223 586 177 566 q 319 606 269 606 q 395 593 365 606 q 458 558 426 581 l 458 800 q 448 837 458 828 q 408 850 437 846 l 408 880 l 564 880 l 564 558 q 627 593 596 581 q 703 606 657 606 q 800 586 754 606 q 880 530 846 566 q 933 443 913 495 q 953 328 953 391 q 916 168 953 241 q 792 47 880 94 q 564 0 705 0 l 564 -195 q 573 -231 564 -221 q 608 -244 582 -240 l 608 -278 l 414 -278 l 414 -244 q 442 -236 434 -240 q 454 -223 450 -233 q 458 -195 458 -213 l 458 0 m 564 69 q 679 89 627 69 q 766 143 730 108 q 822 228 802 178 q 842 334 842 277 q 822 430 842 386 q 768 501 802 475 q 694 528 734 528 q 564 478 618 528 l 564 69 m 458 69 l 458 478 q 328 528 405 528 q 254 501 288 528 q 200 430 220 475 q 180 334 180 386 q 257 143 180 218 q 458 69 334 69 z "},"õ":{"ha":631,"x_min":22,"x_max":600,"o":"m 205 0 l 22 0 l 22 33 q 72 61 52 37 l 250 319 l 103 530 q 50 558 85 554 l 50 591 l 258 591 l 258 558 q 236 553 246 558 q 225 539 225 547 q 231 525 225 536 l 330 380 l 422 517 q 428 533 428 533 q 418 550 428 543 q 395 558 408 556 l 395 591 l 578 591 l 578 558 q 519 525 543 558 l 375 314 l 547 66 q 600 33 568 37 l 600 0 l 389 0 l 389 33 q 431 53 431 33 q 428 64 431 61 l 294 253 l 172 66 q 171 61 172 65 q 170 56 170 57 q 182 39 170 45 q 205 33 195 33 l 205 0 z "},"ö":{"ha":728,"x_min":61,"x_max":694,"o":"m 631 591 l 631 75 l 694 75 l 694 -69 l 661 -69 q 575 0 649 0 l 525 0 l 525 64 q 325 -17 420 -17 q 267 -11 311 -17 q 145 65 184 7 q 106 211 106 124 l 106 509 q 96 545 106 535 q 61 558 87 554 l 61 591 l 211 591 l 211 236 q 225 136 211 175 q 286 78 239 98 q 347 64 318 64 q 525 155 427 64 l 525 509 q 516 545 525 535 q 481 558 507 554 l 481 591 l 631 591 z "},"÷":{"ha":686,"x_min":69,"x_max":659,"o":"m 505 372 l 505 509 q 496 544 505 534 q 461 558 486 554 l 461 591 l 659 591 l 659 558 q 628 551 637 555 q 615 537 619 547 q 611 509 611 527 l 611 83 q 615 54 611 65 q 631 39 619 43 q 659 33 642 34 l 659 0 l 461 0 l 461 33 q 496 48 487 37 q 505 83 505 58 l 505 297 q 404 249 450 264 q 314 233 359 233 q 219 256 265 233 q 146 317 174 278 q 119 403 119 355 l 119 505 q 110 544 119 534 q 69 558 100 554 l 69 591 l 269 591 l 269 558 q 234 545 243 554 q 225 509 225 535 l 225 411 q 260 338 225 368 q 342 309 295 309 q 505 372 434 309 z "},"ø":{"ha":1128,"x_min":75,"x_max":1092,"o":"m 1086 591 l 1086 558 q 1052 544 1063 554 q 1042 509 1042 533 l 1042 86 q 1052 47 1042 58 q 1092 33 1062 37 l 1092 0 l 939 0 l 936 66 q 739 -17 837 -17 q 632 9 677 -17 q 553 89 587 35 q 334 -17 447 -17 q 258 -5 312 -17 q 157 63 195 12 q 119 180 119 115 l 119 509 q 110 544 119 533 q 75 558 100 554 l 75 591 l 267 591 l 267 558 q 233 545 241 554 q 225 509 225 536 l 225 208 q 233 139 225 166 q 269 92 241 112 q 353 66 308 66 q 409 77 378 66 q 464 106 439 88 q 506 143 484 119 q 528 183 528 166 l 528 509 q 518 543 528 532 q 486 558 509 554 l 486 591 l 675 591 l 675 558 q 643 543 652 554 q 633 509 633 532 l 633 208 q 667 105 633 143 q 761 66 700 66 q 936 153 844 66 l 936 509 q 926 544 936 534 q 892 558 917 554 l 892 591 l 1086 591 z "},"ù":{"ha":1141,"x_min":75,"x_max":1108,"o":"m 1086 591 l 1086 558 q 1052 544 1063 554 q 1042 509 1042 533 l 1042 75 l 1108 75 l 1108 -69 l 1075 -69 q 989 0 1063 0 l 939 0 l 936 66 q 739 -17 837 -17 q 632 9 677 -17 q 553 89 587 35 q 334 -17 447 -17 q 258 -5 312 -17 q 157 63 195 12 q 119 180 119 115 l 119 509 q 110 544 119 533 q 75 558 100 554 l 75 591 l 267 591 l 267 558 q 233 545 241 554 q 225 509 225 536 l 225 208 q 233 139 225 166 q 269 92 241 112 q 353 66 308 66 q 409 77 378 66 q 464 106 439 88 q 506 143 484 119 q 528 183 528 166 l 528 509 q 518 543 528 532 q 486 558 509 554 l 486 591 l 675 591 l 675 558 q 643 543 652 554 q 633 509 633 532 l 633 208 q 667 105 633 143 q 761 66 700 66 q 936 153 844 66 l 936 509 q 926 544 936 534 q 892 558 917 554 l 892 591 l 1086 591 z "},"ú":{"ha":852,"x_min":72,"x_max":814,"o":"m 447 591 l 447 558 q 413 543 422 553 q 403 509 403 533 l 403 361 l 561 361 q 692 341 634 361 q 782 282 749 322 q 814 183 814 241 q 742 48 814 96 q 567 0 669 0 l 253 0 l 253 33 q 287 47 277 35 q 297 92 297 60 l 297 522 l 158 522 q 122 507 134 522 q 103 464 111 491 l 72 464 l 72 591 l 447 591 m 567 72 q 675 101 637 72 q 714 183 714 130 q 673 266 714 239 q 558 292 631 292 l 403 292 l 403 72 l 567 72 z "},"û":{"ha":920,"x_min":69,"x_max":892,"o":"m 69 591 l 267 591 l 267 558 q 234 544 243 554 q 225 509 225 534 l 225 361 l 380 361 q 513 342 455 361 q 604 282 571 323 q 636 183 636 241 q 602 82 636 123 q 512 21 568 41 q 389 0 456 0 l 75 0 l 75 33 q 109 48 98 35 q 119 92 119 60 l 119 505 q 107 543 117 530 q 69 558 98 556 l 69 591 m 225 292 l 225 72 l 389 72 q 495 101 456 72 q 533 183 533 130 q 492 266 533 240 q 380 292 452 292 l 225 292 m 742 83 l 742 509 q 732 544 742 534 q 697 558 722 554 l 697 591 l 892 591 l 892 558 q 856 545 865 553 q 847 509 847 536 l 847 83 q 857 45 847 55 q 892 33 866 35 l 892 0 l 697 0 l 697 33 q 725 42 716 37 q 738 57 733 47 q 742 83 742 67 z "},"ü":{"ha":672,"x_min":69,"x_max":636,"o":"m 69 591 l 267 591 l 267 558 q 234 544 243 554 q 225 509 225 534 l 225 361 l 380 361 q 513 342 455 361 q 604 282 571 323 q 636 183 636 241 q 602 82 636 123 q 512 21 568 41 q 389 0 456 0 l 75 0 l 75 33 q 109 48 98 35 q 119 92 119 60 l 119 505 q 107 543 117 530 q 69 558 98 556 l 69 591 m 225 292 l 225 72 l 389 72 q 495 101 456 72 q 533 183 533 130 q 492 266 533 240 q 380 292 452 292 l 225 292 z "},"ý":{"ha":644,"x_min":61,"x_max":616,"o":"m 503 345 q 479 415 497 382 q 433 474 462 448 q 370 516 404 501 q 302 530 336 530 q 236 522 270 530 q 167 464 167 498 q 180 425 167 448 l 153 403 l 61 505 q 322 606 178 606 q 420 589 374 606 q 505 543 467 572 q 570 472 543 513 q 608 378 597 430 q 616 317 616 349 q 588 190 616 250 q 508 83 559 130 q 395 14 458 37 q 233 -17 324 -17 q 114 -3 182 -17 l 114 117 l 144 117 q 179 73 153 88 q 241 58 205 58 q 319 73 278 58 q 398 115 359 87 q 464 183 436 142 q 500 272 491 224 l 267 272 l 267 345 l 503 345 z "},"þ":{"ha":961,"x_min":69,"x_max":922,"o":"m 309 272 l 225 272 l 225 83 q 234 47 225 57 q 269 33 243 37 l 269 0 l 75 0 l 75 33 q 110 46 100 35 q 119 83 119 57 l 119 505 q 110 544 119 534 q 69 558 100 554 l 69 591 l 269 591 l 269 558 q 234 545 243 554 q 225 509 225 535 l 225 345 l 309 345 q 345 450 319 401 q 412 535 372 498 q 503 593 452 572 q 611 614 553 614 q 767 571 696 614 q 880 454 838 528 q 922 294 922 379 q 881 137 922 212 q 769 15 840 61 q 614 -31 698 -31 q 465 12 532 -31 q 355 123 397 54 q 309 272 314 193 m 659 542 q 611 545 644 545 q 467 473 517 545 q 416 294 416 401 q 463 116 416 190 q 608 41 510 41 q 722 77 675 41 q 790 170 768 113 q 811 294 811 227 q 796 405 811 353 q 746 494 781 456 q 659 542 711 532 z "},"ÿ":{"ha":659,"x_min":50,"x_max":631,"o":"m 481 336 l 481 519 l 306 519 q 232 498 267 519 q 197 433 197 476 q 229 361 197 386 q 314 336 261 336 l 481 336 m 631 591 l 631 558 q 600 551 609 555 q 587 537 591 547 q 583 509 583 527 l 583 78 q 587 50 583 59 q 603 38 591 41 q 631 33 614 34 l 631 0 l 436 0 l 436 33 q 470 48 460 37 q 481 83 481 59 l 481 267 l 428 267 l 192 0 l 50 0 l 50 33 q 83 43 62 36 q 111 58 104 51 l 306 269 q 190 294 237 276 q 115 347 142 312 q 89 436 89 382 q 112 518 89 484 q 179 572 134 553 q 286 591 224 591 l 631 591 z "}," ":{"ha":581,"x_min":0,"x_max":0,"o":""}}}
